# Blender 4.1.0
# www.blender.org
o Plane
v -0.000000 1.413651 -0.000000
v 0.000000 0.000000 0.073280
v 0.000000 0.000000 -0.073280
v -0.000000 1.060238 0.041091
v -0.000000 0.706826 0.051602
v 0.000000 0.353413 0.062930
v 0.000000 0.353413 -0.062930
v -0.000000 0.706826 -0.051602
v -0.000000 1.060238 -0.041091
vn 1.0000 -0.0000 -0.0000
vt 0.750000 0.000000
vt 1.000000 0.000000
vt 1.000000 1.000000
vt 0.750000 1.000000
vt 0.000000 0.000000
vt 0.250000 0.000000
vt 0.250000 1.000000
vt 0.500000 0.000000
vt 0.500000 1.000000
s 0
f 6/1/1 2/2/1 3/3/1 7/4/1
f 1/5/1 4/6/1 9/7/1
f 4/6/1 5/8/1 8/9/1 9/7/1
f 5/8/1 6/1/1 7/4/1 8/9/1
o Plane.001
v 0.001000 0.949798 -0.273673
v 0.001000 0.017909 0.062156
v 0.001000 -0.017909 -0.062156
v 0.001000 0.722391 -0.170402
v 0.001000 0.487510 -0.093068
v 0.001000 0.252829 -0.015042
v 0.001000 0.222070 -0.121795
v 0.001000 0.462288 -0.180605
v 0.001000 0.702306 -0.240108
vn 1.0000 -0.0000 -0.0000
vt 0.750000 0.000000
vt 1.000000 0.000000
vt 1.000000 1.000000
vt 0.750000 1.000000
vt 0.000000 0.000000
vt 0.250000 0.000000
vt 0.250000 1.000000
vt 0.500000 0.000000
vt 0.500000 1.000000
s 0
f 15/10/2 11/11/2 12/12/2 16/13/2
f 10/14/2 13/15/2 18/16/2
f 13/15/2 14/17/2 17/18/2 18/16/2
f 14/17/2 15/10/2 16/13/2 17/18/2
o Plane.002
v -0.001000 1.211317 0.323719
v -0.001000 -0.017646 0.066029
v -0.001000 0.017646 -0.066029
v -0.001000 0.898593 0.279814
v -0.001000 0.593232 0.208356
v -0.001000 0.287675 0.137633
v -0.001000 0.317983 0.024227
v -0.001000 0.618084 0.115363
v -0.001000 0.918382 0.205765
vn 1.0000 -0.0000 -0.0000
vt 0.750000 0.000000
vt 1.000000 0.000000
vt 1.000000 1.000000
vt 0.750000 1.000000
vt 0.000000 0.000000
vt 0.250000 0.000000
vt 0.250000 1.000000
vt 0.500000 0.000000
vt 0.500000 1.000000
s 0
f 24/19/3 20/20/3 21/21/3 25/22/3
f 19/23/3 22/24/3 27/25/3
f 22/24/3 23/26/3 26/27/3 27/25/3
f 23/26/3 24/19/3 25/22/3 26/27/3
