# Blender 4.1.1
# www.blender.org
mtllib PineTree_01.mtl
o Cylinder
v 0.000000 -0.597197 -2.266457
v 0.219640 0.980885 -0.940703
v 1.933021 -0.597197 -1.133229
v 0.965038 0.977090 -0.282627
v 1.933021 -0.597197 1.133229
v 0.757119 0.977090 0.658062
v 0.000000 -0.597197 2.266457
v -0.196197 0.977614 0.940676
v -1.897488 -0.597197 1.455221
v -0.976390 0.977090 0.604673
v -1.897488 -0.597197 -0.811237
v -0.768267 0.991880 -0.337711
v 0.734621 6.901410 0.940373
v 2.676012 2.457415 1.993291
v -2.271710 2.020651 -1.668272
v -0.449860 2.091389 2.934839
v -2.644063 1.998681 1.562310
v -1.000590 6.899496 0.743385
v -0.289662 6.899751 1.355599
v 3.364009 1.864618 -1.119524
v 0.926034 2.090974 -3.290791
v 0.196779 2.904719 -0.843081
v 0.844598 2.976704 -0.250625
v 0.661485 2.952413 0.578533
v -0.171167 2.896173 0.829190
v -0.656862 2.859331 -0.397332
v -0.815563 2.826874 0.451888
v -0.633393 8.873459 -0.037467
v -0.079508 3.437967 2.024791
v -1.557874 3.427992 1.130097
v -1.422404 3.279201 -1.347990
v 2.029413 3.590731 1.383066
v 2.372132 3.493107 -0.790322
v 0.912132 3.403954 -2.470998
v 0.480006 3.302238 2.605715
v -2.089072 3.282760 1.397058
v -1.822698 3.146879 -1.647697
v -1.182400 6.898754 -0.635755
v 1.010797 6.902324 -0.451680
v -0.005769 6.902113 -1.419403
v 1.097991 3.269062 -3.094007
v 2.184902 3.422344 2.131206
v 2.990582 3.574076 -1.012986
v -0.124457 5.564282 1.315989
v -0.864375 5.801042 0.728492
v -0.973574 5.496133 -0.773580
v 1.159918 5.889065 0.917587
v 1.452791 5.871260 -0.441684
v -0.281908 6.884423 1.156470
v -0.943061 6.860308 0.698219
v 0.614434 6.889815 0.771316
v -1.287145 5.363954 -1.016327
v -1.034144 6.881011 -0.538042
v -0.007728 6.967334 -1.071548
v 0.657318 5.413466 -2.049304
v 0.820741 6.888847 -0.337379
v 1.973857 5.699894 -0.645831
v 1.570384 5.780069 1.217030
v -1.152929 5.758833 0.921425
v -0.189233 5.427383 1.655440
v 1.956720 4.558044 1.333292
v 2.060262 4.630889 1.435304
v 2.186273 4.344391 -0.729359
v 2.454680 4.337478 -0.822089
v -0.135575 4.284042 2.332416
v -0.045889 4.369626 1.663926
v -1.545031 4.264761 1.190931
v -1.335835 4.191384 1.079474
v -1.576568 4.117270 -1.270017
v -1.284622 4.096928 -0.998271
v 0.896652 4.178487 -2.079623
v -2.395446 2.013923 -0.588102
v -2.521644 2.005941 0.500615
v -2.403558 2.256316 -0.119418
v 1.191009 3.580170 2.205926
v 0.715051 5.608709 -1.316264
v 0.250957 5.532879 -1.400999
v 0.590474 5.477992 -1.792575
v 0.737509 4.170595 -2.559841
v 1.186018 4.196417 -2.482022
v 0.963070 4.177549 -2.449064
v -0.523444 4.443868 -1.803898
vn 0.4548 0.5766 -0.6788
vn 0.8284 0.5576 0.0537
vn 0.3600 0.5764 0.7336
vn -0.3188 0.5874 0.7438
vn -0.0229 -0.9467 0.3213
vn 0.2894 -0.9308 0.2233
vn -0.7331 -0.5139 -0.4454
vn 0.0847 -0.4655 -0.8810
vn -0.8408 0.5388 -0.0521
vn -0.4721 0.5788 -0.6649
vn -0.0000 -1.0000 -0.0000
vn -0.3124 -0.9364 0.1600
vn 0.7972 -0.5581 -0.2301
vn -0.7065 -0.6818 -0.1897
vn -0.5817 -0.7485 0.3184
vn -0.8959 -0.4421 -0.0448
vn 0.3118 -0.9368 -0.1590
vn 0.1176 -0.9368 -0.3294
vn -0.1180 -0.5192 0.8465
vn -0.7990 -0.4769 0.3664
vn -0.1680 -0.9728 -0.1596
vn 0.6634 -0.3904 0.6383
vn 0.1219 -0.7084 0.6952
vn 0.5162 -0.7131 0.4744
vn 0.2121 -0.3652 0.9065
vn 0.7317 -0.6413 -0.2311
vn 0.9026 -0.3391 -0.2652
vn 0.5712 -0.4246 0.7024
vn 0.1370 -0.5109 0.8487
vn -0.8029 -0.4298 0.4131
vn -0.9782 0.0603 -0.1987
vn 0.9748 0.0556 0.2161
vn -0.4494 0.0845 0.8893
vn -0.4951 0.0203 -0.8686
vn 0.2842 0.0521 0.9573
vn 0.6658 0.0489 -0.7445
vn -0.8257 -0.4432 -0.3490
vn -0.7724 -0.4323 0.4652
vn -0.2086 0.9779 -0.0120
vn 0.7335 -0.3168 0.6013
vn 0.9070 -0.3505 -0.2334
vn -0.1208 -0.3293 0.9365
vn 0.1454 -0.3840 -0.9118
vn 0.2935 -0.7634 -0.5753
vn -0.4968 -0.7518 -0.4336
vn -0.7048 -0.7061 0.0680
vn 0.5856 -0.7509 0.3053
vn 0.6934 -0.7172 -0.0703
vn 0.9026 -0.3809 -0.2006
vn 0.7404 -0.3718 0.5600
vn -0.6027 -0.7580 0.2494
vn -0.2650 -0.7254 0.6353
vn -0.1294 -0.6690 0.7319
vn -0.7580 -0.5012 0.4173
vn -0.6950 -0.6213 0.3619
vn -0.1769 -0.6463 0.7423
vn -0.6517 -0.7227 -0.2301
vn -0.1761 -0.2639 -0.9483
vn -0.4666 -0.1618 -0.8696
vn -0.0383 -0.6498 -0.7592
vn -0.6045 -0.7871 -0.1228
vn -0.6872 -0.6117 -0.3919
vn -0.7170 -0.4317 -0.5474
vn 0.2271 -0.3366 -0.9139
vn -0.8240 -0.3934 0.4079
vn -0.0908 -0.4047 0.9099
vn 0.0225 -0.4324 -0.9014
vn 0.8682 -0.4895 -0.0809
vn -0.7825 -0.4184 -0.4612
vn -0.7067 -0.5485 0.4469
vn -0.0987 -0.5420 0.8345
vn 0.5422 -0.5809 0.6072
vn 0.2256 -0.4707 -0.8529
vn -0.0460 -0.7418 -0.6690
vn 0.8022 -0.5379 -0.2590
vn 0.5360 -0.6316 -0.5601
vn 0.0520 -0.9548 0.2926
vn 0.7744 -0.2443 0.5836
vn 0.9151 -0.3421 -0.2137
vn -0.8007 -0.3716 -0.4699
vn 0.0038 -0.9932 -0.1166
vn 0.6529 -0.5954 0.4682
vn 0.4510 -0.3572 -0.8179
vt 1.000000 0.500000
vt 1.000000 1.000000
vt 0.833333 1.000000
vt 0.833333 0.500000
vt 0.666667 1.000000
vt 0.666667 0.500000
vt 0.500000 1.000000
vt 0.500000 0.500000
vt 0.333333 1.000000
vt 0.333333 0.500000
vt -0.000000 1.000000
vt 0.166667 1.000000
vt 0.166667 1.000000
vt 0.166667 0.500000
vt -0.000000 0.500000
vt 0.750000 0.490000
vt 0.957846 0.370000
vt 0.957846 0.130000
vt 0.750000 0.010000
vt 0.542154 0.130000
vt 0.542154 0.370000
vt 0.833333 1.000000
vt 0.278571 1.000000
vt 0.666667 1.000000
vt 0.583333 1.000000
vt 0.222222 1.000000
vt 0.017577 1.000000
vt 0.092127 1.000000
vt 0.030486 1.000000
vt 0.833333 1.000000
vt -0.000000 1.000000
vt 0.965873 1.000000
vt 0.666667 1.000000
vt 0.017577 1.000000
vt 0.030486 1.000000
vt 0.979726 1.000000
vt 0.965873 1.000000
s 1
usemtl Leaves
f 22/11/5 26/12/6 15/12/7 21/11/8
f 23/22/12 22/2/5 21/2/8 20/22/13
f 73/23/14 30/9/15 74/23/16
f 27/9/17 25/7/18 16/7/19 17/9/20
f 25/7/18 24/24/21 14/24/22 16/7/19
f 24/24/21 23/22/12 20/22/13 14/24/22
f 29/7/23 32/24/24 75/25/25
f 32/24/24 33/22/26 43/22/27 42/24/28
f 30/9/15 29/7/23 35/7/29 36/9/30
f 38/12/37 18/9/38 28/13/39
f 13/24/40 39/22/41 28/5/39
f 18/9/38 19/7/42 28/9/39
f 40/11/43 38/12/37 28/11/39
f 19/7/42 13/24/40 28/7/39
f 39/22/41 40/2/43 28/3/39
f 20/22/13 21/2/8 34/2/44 33/22/26
f 14/24/22 20/22/13 33/22/26 32/24/24
f 21/11/8 15/12/7 31/12/45 34/11/44
f 15/12/7 72/26/46 31/12/45
f 17/9/20 16/7/19 29/7/23 30/9/15
f 16/7/19 14/24/22 32/24/24 29/7/23
f 47/24/47 48/22/48 57/22/49 58/24/50
f 45/9/51 44/7/52 60/7/53 59/9/54
f 19/7/42 18/9/38 50/9/55 49/7/56
f 18/9/38 38/12/37 53/12/57 50/9/55
f 79/27/58 82/28/59 77/29/60
f 46/12/61 45/9/51 59/9/54 52/12/62
f 34/11/44 31/12/45 37/12/63 41/11/64
f 31/12/45 30/9/15 36/9/30 37/12/63
f 33/22/26 34/2/44 41/2/64 43/22/27
f 67/9/65 65/7/66 44/7/52 45/9/51
f 43/22/27 41/2/64 71/2/67 63/30/68
f 41/11/64 37/12/63 70/12/69 71/31/67
f 37/12/63 36/9/30 68/9/70 70/12/69
f 36/9/30 35/7/29 66/7/71 68/9/70
f 35/7/29 75/25/25 66/7/71
f 60/7/53 58/24/50 51/24/72 49/7/56
f 59/9/54 60/7/53 49/7/56 50/9/55
f 52/12/62 59/9/54 50/9/55 53/12/57
f 55/11/73 52/12/62 53/12/57 54/11/74
f 58/24/50 57/22/49 56/22/75 51/24/72
f 57/22/49 55/2/73 54/2/74 56/22/75
f 40/2/43 39/22/41 56/22/75 54/2/74
f 39/22/41 13/24/40 51/24/72 56/22/75
f 13/24/40 19/7/42 49/7/56 51/24/72
f 44/7/52 47/24/47 58/24/50 60/7/53
f 48/22/48 76/32/76 78/2/77 55/2/73 57/22/49
f 38/12/37 40/11/43 54/11/74 53/12/57
f 62/33/78 64/22/79 48/22/48 47/24/47
f 69/12/80 67/9/65 45/9/51 46/12/61
f 69/13/80 82/28/59 79/34/58 81/11/81 71/31/67 70/12/69
f 65/7/66 62/33/78 47/24/47 44/7/52
f 78/11/77 77/35/60 46/12/61 52/12/62 55/11/73
f 62/33/78 65/7/66 66/7/71 61/33/82
f 65/7/66 67/9/65 68/9/70 66/7/71
f 67/9/65 69/12/80 70/12/69 68/9/70
f 81/2/81 80/36/83 64/22/79 63/30/68 71/2/67
f 64/22/79 62/33/78 61/33/82 63/22/68
f 42/24/28 43/22/27 63/22/68 61/33/82
f 30/9/15 73/23/14 17/9/20
f 73/23/14 27/9/17 17/9/20
f 72/26/46 15/12/7 26/12/6
f 26/12/6 27/9/17 74/26/16
f 31/12/45 74/23/16 30/9/15
f 31/12/45 72/26/46 74/26/16
f 27/9/17 73/23/14 74/23/16
f 72/26/46 26/12/6 74/26/16
f 66/7/71 75/25/25 61/33/82
f 61/33/82 75/25/25 42/24/28
f 75/25/25 32/24/24 42/24/28
f 75/25/25 35/7/29 29/7/23
f 76/11/76 77/29/60 78/11/77
f 79/34/58 80/31/83 81/11/81
f 79/27/58 77/29/60 76/11/76 80/11/83
f 64/22/79 80/36/83 76/37/76 48/22/48
f 46/12/61 82/28/59 69/13/80
f 77/29/60 82/28/59 46/12/61
s 0
usemtl Wood
f 1/1/1 2/2/1 4/3/1 3/4/1
f 3/4/2 4/3/2 6/5/2 5/6/2
f 5/6/3 6/5/3 8/7/3 7/8/3
f 7/8/4 8/7/4 10/9/4 9/10/4
f 9/10/9 10/9/9 12/13/9 11/14/9
f 11/14/10 12/13/10 2/11/10 1/15/10
f 1/16/11 3/17/11 5/18/11 7/19/11 9/20/11 11/21/11
f 12/13/31 10/9/31 27/9/31 26/12/31
f 6/5/32 4/3/32 23/22/32 24/24/32
f 10/9/33 8/7/33 25/7/33 27/9/33
f 2/11/34 12/13/34 26/12/34 22/11/34
f 8/7/35 6/5/35 24/24/35 25/7/35
f 4/3/36 2/2/36 22/2/36 23/22/36
