# Blender 4.1.1
# www.blender.org
mtllib Rock_02.mtl
o Icosphere
v -0.290123 0.388847 -0.835449
v 0.608596 0.433877 -0.759147
v -0.158965 0.981333 0.117694
v -0.209854 -0.702042 0.222876
v 1.074574 0.059137 0.108896
v -1.665275 -0.077306 0.555390
v -0.330944 0.646626 0.721673
v -0.456354 -0.043057 -0.864123
v 0.599257 0.844307 0.149206
v 0.174059 0.723800 -0.510276
v 0.109883 -0.594045 0.963441
v 0.810380 -0.077674 -0.294595
v -1.108002 -0.853408 0.305064
v -0.291931 -0.561903 1.126915
v 0.214494 0.142360 0.950404
v 1.029252 0.670415 -0.250684
v -0.467889 1.033120 -0.429454
v -0.160119 -0.826501 -0.534066
v -1.334651 -0.593692 -0.151358
v -0.743994 0.923532 -0.164807
v 0.245934 1.199249 0.566011
v 0.306497 1.077777 0.803528
v 0.741705 0.164369 -0.762561
v -1.568367 0.070033 -0.001160
v -1.408338 0.378409 0.677590
v 0.693439 0.597327 0.684635
v 1.121663 0.566792 0.197110
v 0.178330 -0.134295 -1.084269
v 0.371751 -0.300178 -0.978635
v -1.076362 0.044648 -0.591471
v -1.525096 -0.584497 0.553805
v -0.775104 -0.820721 0.833404
v 0.398695 -0.465428 0.797278
v 1.054708 -0.582043 0.089879
v 0.203591 -0.873087 -0.669069
v -0.525634 -0.491101 -0.381830
v 0.625262 -0.947241 -0.104282
v 0.680655 -0.906428 0.233215
v 0.113323 -1.034182 -0.093398
vn 0.6015 -0.2385 0.7624
vn 0.4536 -0.8071 0.3779
vn 0.9354 -0.3535 -0.0107
vn -0.2437 -0.9685 0.0515
vn 0.1792 -0.7308 -0.6587
vn 0.5298 -0.7860 -0.3185
vn 0.9824 -0.1371 0.1266
vn -0.7406 -0.4781 0.4721
vn -0.2276 -0.9672 -0.1123
vn -0.1600 -0.7130 0.6826
vn 0.5143 -0.3694 -0.7740
vn 0.8329 -0.2703 -0.4830
vn -0.5862 -0.6081 -0.5354
vn -0.9027 0.2262 -0.3660
vn -0.5898 0.0899 -0.8025
vn -0.5302 0.8321 -0.1625
vn -0.2566 0.8266 -0.5008
vn -0.2099 0.4334 -0.8764
vn 0.3409 0.5244 -0.7803
vn 0.1804 0.8175 -0.5469
vn 0.7591 0.5393 -0.3647
vn -0.0999 0.9943 0.0374
vn 0.2259 0.1052 0.9685
vn -0.1000 -0.2795 0.9549
vn 0.3466 -0.5735 0.7422
vn -0.3512 0.5362 0.7675
vn 0.0641 0.9963 0.0567
vn 0.4012 0.9118 -0.0872
vn 0.6984 0.2700 0.6628
vn 0.1882 0.7023 0.6865
vn 0.8926 0.3478 0.2869
vn 0.7401 -0.0643 -0.6694
vn -0.3910 -0.1753 -0.9035
vn 0.0083 -0.0566 -0.9984
vn -0.5813 0.5193 0.6264
vn -0.9019 0.0192 0.4315
vn -0.3533 -0.8005 -0.4841
vn -0.5271 -0.7395 -0.4186
vn -0.2458 -0.9679 0.0521
vt 0.208381 0.172563
vt 0.329758 0.110289
vt 0.357010 0.169523
vt 0.555020 0.042470
vt 0.548194 0.118517
vt 0.500000 0.078731
vt 0.349432 0.245802
vt 0.869642 0.193304
vt 0.862327 0.149980
vt 0.939198 0.156201
vt 0.535379 0.200860
vt 0.424815 0.209059
vt 0.800380 0.178587
vt 0.815723 0.247918
vt 0.745298 0.242274
vt 0.805501 0.351727
vt 0.767613 0.384793
vt 0.642836 0.282131
vt 0.499523 0.298392
vt 0.498578 0.374815
vt 0.415011 0.325616
vt 0.591780 0.386961
vt 0.671675 0.384850
vt 0.636640 0.472793
vt 0.833822 0.444309
vt 0.161034 0.264785
vt 0.098041 0.174736
vt 0.144383 0.145929
vt 0.886364 0.354286
vt 0.272728 0.472382
vt 0.235547 0.397190
vt 0.301072 0.375931
vt 0.252311 0.305925
vt 0.227130 0.351321
vt 0.341040 0.307428
vt 0.480234 0.256422
vt 0.660148 0.221328
vt 0.575546 0.227571
vt 0.888324 0.279515
vt 0.863637 0.236191
vt 0.078342 0.319680
vt 0.145637 0.352130
vt 0.728838 0.144070
vt 0.998294 0.160416
vt 0.954545 0.236191
vt 0.676832 0.092859
vt 0.764352 0.073355
vt 0.913806 0.067026
vt 0.977273 0.118096
vt 0.386499 0.102790
vt 0.216746 0.096965
vt 0.708167 0.033093
vt 0.598274 0.091486
vt 0.129545 0.402498
vt 0.074805 0.444589
vt 0.454289 0.472827
vt 0.421035 0.403261
vt 0.340910 0.354286
vt 0.795455 0.118096
vt 0.363691 0.039974
vt 0.144917 0.063917
vt 0.190572 0.029528
s 1
f 33/1/1 38/2/2 34/3/3
f 39/4/4 35/5/5 37/6/6
f 33/1/1 34/3/3 5/7/7
f 31/8/8 13/9/9 32/10/10
f 35/5/5 29/11/11 12/12/12
f 19/13/13 24/14/14 30/15/15
f 20/16/16 17/17/17 1/18/18
f 2/19/19 10/20/20 16/21/21
f 10/22/20 17/23/17 3/24/22
f 1/18/18 17/23/17 10/22/20
f 20/16/16 3/25/22 17/17/17
f 33/1/1 15/26/23 14/27/24 11/28/25
f 20/16/16 7/29/26 3/25/22
f 3/30/22 21/31/27 9/32/28
f 26/33/29 9/32/28 22/34/30
f 26/33/29 27/35/31 9/32/28
f 23/36/32 2/19/19 16/21/21
f 8/37/33 1/18/18 28/38/34
f 25/39/35 24/14/14 6/40/36
f 20/16/16 24/14/14 25/39/35
f 7/41/26 15/26/23 22/42/30
f 26/33/29 15/26/23 33/1/1
f 23/36/32 28/38/34 2/19/19
f 29/11/11 28/38/34 23/36/32
f 35/5/5 28/38/34 29/11/11
f 8/37/33 30/15/15 1/18/18
f 8/37/33 19/13/13 30/15/15
f 19/13/13 8/37/33 36/43/37
f 31/8/8 25/39/35 6/40/36
f 32/10/10 14/44/24 7/45/26
f 5/7/7 34/3/3 12/12/12
f 37/6/6 35/5/5 12/12/12
f 8/37/33 18/46/38 36/43/37
f 4/47/39 36/43/37 18/46/38
f 32/10/10 13/9/9 4/48/39
f 11/49/25 32/10/10 4/48/39
f 14/44/24 32/10/10 11/49/25
f 37/50/6 12/12/12 34/3/3
f 38/2/2 37/50/6 34/3/3
f 33/1/1 11/28/25 38/51/2
f 18/46/38 39/52/4 4/47/39
f 18/53/38 35/5/5 39/4/4
f 31/8/8 6/40/36 24/14/14 19/13/13
f 19/13/13 13/9/9 31/8/8
f 12/12/12 29/11/11 23/36/32
f 5/7/7 26/33/29 33/1/1
f 15/26/23 7/41/26 14/27/24
f 22/42/30 21/54/27 3/55/22 7/41/26
f 15/26/23 26/33/29 22/34/30
f 2/19/19 1/18/18 10/22/20
f 10/20/20 3/56/22 9/57/28
f 9/57/28 16/21/21 10/20/20
f 25/39/35 7/29/26 20/16/16
f 5/7/7 12/12/12 23/36/32 16/21/21
f 22/34/30 9/32/28 21/31/27
f 9/32/28 27/35/31 16/58/21
f 32/10/10 7/45/26 25/39/35 31/8/8
f 27/35/31 5/7/7 16/21/21
f 2/19/19 28/38/34 1/18/18
f 24/14/14 20/16/16 30/15/15
f 1/18/18 30/15/15 20/16/16
f 5/7/7 27/35/31 26/33/29
f 35/5/5 18/53/38 8/37/33 28/38/34
f 4/47/39 13/59/9 36/43/37
f 19/13/13 36/43/37 13/59/9
f 38/2/2 39/60/4 37/50/6
f 4/61/39 39/62/4 11/28/25
f 38/51/2 11/28/25 39/62/4
