# Blender 3.6.1
# www.blender.org
mtllib Trees.mtl
o Tree_Pine_01
v 0.000000 -0.602593 -1.496590
v 1.496590 -0.602593 0.000000
v 0.762331 1.789333 0.000000
v 0.231346 -0.602593 2.025255
v 0.000000 1.789333 0.678534
v -1.496590 -0.602593 0.000000
v -0.581819 1.789333 0.235306
v 0.000000 0.369153 -1.000000
v 1.214431 0.369153 0.000000
v -0.134997 0.369153 1.239403
v -1.000000 0.369153 0.000000
v 0.795358 0.938100 0.000000
v 0.000000 0.938100 0.589070
v -0.614846 0.938100 0.235306
v 0.982123 -0.602593 0.987210
v -0.982123 -0.602593 -0.977036
v -0.500272 1.789333 -0.495185
v -0.656240 0.369153 -0.651153
v 0.656240 0.369153 0.661328
v -0.521946 0.938100 -0.516859
v 0.521946 0.938100 0.446313
v 1.190117 -0.602593 -1.201271
v 0.500272 1.789333 -0.495185
v -0.982123 -0.602593 0.987210
v -0.656240 0.369153 0.661328
v 0.656240 0.369153 -0.651153
v 0.521946 0.938100 -0.516859
v 0.000000 1.770666 -0.610061
v 0.133968 7.019856 -0.783310
v 0.528328 1.770666 -0.305030
v 0.545581 7.101486 -0.332686
v 0.528328 1.770666 0.305030
v 0.545581 7.101486 0.277105
v 0.000000 1.770666 0.610061
v 0.017487 7.101486 0.582000
v -0.528328 1.770666 0.305030
v -0.510607 7.101486 0.277105
v -0.528328 1.770666 -0.305030
v -0.394126 7.019856 -0.478415
v 0.000000 2.385333 -1.782323
v 1.543537 2.385333 -0.891161
v 1.543537 2.385333 0.891161
v 0.000000 2.385333 1.782323
v -1.543537 2.385333 0.891161
v -1.543537 2.385333 -0.891161
v 0.138754 6.001149 -1.261053
v 0.000000 3.340138 -2.164049
v 1.582816 3.507812 -1.053127
v 0.726839 6.129569 -0.538307
v 1.582816 3.507812 1.110922
v 0.726839 6.129569 0.531396
v 0.256670 3.354580 2.111325
v 0.184803 6.107033 1.008998
v -1.769311 3.080676 1.038771
v -0.848104 5.879631 0.480789
v -2.025982 3.066234 -1.072554
v -0.894153 5.773747 -0.719558
v 0.017487 7.823265 -0.027790
v -1.756014 4.541923 -1.094494
v 0.103432 4.861915 -2.084915
v -1.584705 4.624856 0.937187
v 0.274742 4.944849 1.907475
v 1.390286 4.950644 1.013881
v 1.390286 4.950644 -0.946828
v -1.521648 4.352964 -0.971287
v -1.378154 4.434128 0.806548
v 0.241332 4.727027 1.650367
v 1.203892 4.717666 0.874274
v 1.203892 4.717666 -0.831145
v 0.097838 4.645864 -1.832887
v -1.073655 5.888269 -0.832673
v -1.015660 6.005542 0.587149
v 0.210305 6.262958 1.214816
v 0.858928 6.302284 0.646671
v 0.858928 6.302285 -0.624290
v 0.152310 6.145685 -1.475967
vn 0.5200 0.2923 -0.8026
vn 0.5131 0.0349 -0.8576
vn 0.9814 0.0720 0.1779
vn 0.9522 0.3048 0.0214
vn -0.6804 0.4804 0.5534
vn -0.1239 0.6276 0.7687
vn -0.0259 0.4079 0.9127
vn -0.0444 0.4972 -0.8665
vn 0.5929 0.4469 -0.6699
vn -0.6397 0.3396 -0.6895
vn -0.6398 0.4280 -0.6384
vn -0.6638 0.4222 -0.6173
vn -0.0631 0.4979 -0.8649
vn -0.7262 0.3980 0.5606
vn -0.8889 0.4582 -0.0000
vn -0.8905 0.4551 -0.0020
vn 0.6995 0.4515 0.5540
vn 0.6376 0.4807 0.6020
vn 0.1006 0.6033 0.7911
vn 0.5802 0.5117 -0.6336
vn 0.8826 0.4676 0.0492
vn 0.8963 0.4384 0.0659
vn -0.8705 0.3126 0.3801
vn 0.6293 0.3191 0.7087
vn -0.9055 -0.0001 0.4243
vn -0.6633 0.0393 -0.7473
vn -0.0121 0.0399 0.9991
vn -0.6304 -0.6754 -0.3825
vn -0.8798 -0.1758 -0.4417
vn 0.0529 -0.1258 -0.9906
vn 0.0408 -0.6139 -0.7883
vn 0.7609 -0.5296 0.3748
vn 0.8814 -0.0216 0.4719
vn 0.0963 -0.0795 0.9922
vn -0.0142 -0.5854 0.8106
vn -0.8254 -0.1223 0.5511
vn -0.6510 -0.6302 0.4231
vn 0.8313 0.4449 -0.3332
vn 0.1277 0.5197 -0.8447
vn -0.0285 0.9995 0.0106
vn 0.8824 -0.0165 -0.4703
vn 0.7612 -0.5169 -0.3916
vn -0.0000 -0.9505 -0.3109
vn 0.2692 -0.9505 -0.1554
vn 0.2692 -0.9505 0.1554
vn -0.0000 -0.9505 0.3109
vn -0.2692 -0.9505 0.1554
vn -0.2692 -0.9505 -0.1554
vn -0.1372 0.9842 -0.1122
vn -0.7861 0.4786 0.3913
vn -0.7263 0.4770 -0.4950
vn -0.0922 0.9955 -0.0204
vn -0.1395 0.9899 -0.0258
vn -0.0056 0.4920 0.8706
vn -0.0764 0.9902 0.1169
vn 0.7972 0.4543 0.3976
vn -0.0241 0.9897 -0.1414
vn -0.2509 0.9676 0.0277
vn -0.5473 0.7819 -0.2986
vn 0.0200 0.8093 -0.5870
vn -0.5013 0.8170 0.2850
vn 0.0038 0.8301 0.5576
vn 0.4571 0.8636 0.2125
vn 0.4257 0.8742 -0.2334
vn -0.1441 0.9890 0.0325
vn 0.0070 0.9992 -0.0388
vn -0.0065 0.9989 0.0473
vn -0.0818 0.9962 -0.0299
vn -0.1060 0.9918 -0.0717
vn -0.0688 0.9969 0.0380
vn -0.5393 0.7934 -0.2821
vn 0.0316 0.8105 -0.5849
vn -0.5107 0.8243 0.2444
vn -0.0094 0.8511 0.5248
vn 0.4082 0.8965 0.1724
vn 0.3405 0.9207 -0.1905
vt 0.875000 0.875000
vt 0.875000 1.000000
vt 0.750000 1.000000
vt 0.750000 0.875000
vt 0.375000 0.750000
vt 0.500000 0.750000
vt 0.500000 0.875000
vt 0.000000 0.750000
vt 0.875000 0.750000
vt 0.125000 0.875000
vt 0.125000 0.500000
vt 0.125000 0.750000
vt 0.000000 0.500000
vt 0.375000 0.500000
vt 0.250000 0.750000
vt 0.250000 0.500000
vt 0.625000 0.500000
vt 0.625000 0.750000
vt 0.500000 0.500000
vt 0.875000 0.500000
vt 0.750000 0.750000
vt 0.750000 0.500000
vt 0.250000 0.875000
vt 0.625000 0.875000
vt 0.250000 1.000000
vt 0.125000 1.000000
vt 0.500000 1.000000
vt 1.000000 0.500000
vt 1.000000 0.750000
vt 0.166667 0.750000
vt 0.166667 0.813256
vt -0.000000 0.813256
vt -0.000000 0.750000
vt 0.666667 0.750000
vt 0.666667 0.813256
vt 0.500000 0.813256
vt 0.500000 0.750000
vt 0.333333 0.813256
vt 0.333333 0.750000
vt 0.166667 0.813256
vt 0.833333 1.000000
vt 1.000000 1.000000
vt 1.000000 0.813256
vt 0.833333 0.813256
vt 0.833333 0.750000
vt 0.750000 0.490000
vt 0.957846 0.370000
vt 0.957846 0.130000
vt 0.750000 0.010000
vt 0.542154 0.130000
vt 0.542154 0.370000
vt 0.166667 0.500000
vt -0.000000 0.500000
vt 0.333333 0.500000
vt 0.500000 0.500000
vt 0.666667 0.500000
vt 0.833333 0.500000
vt 0.833333 0.813256
vt 0.333333 0.936042
vt 0.333333 1.000000
vt 0.166667 1.000000
vt 0.166667 0.936042
vt 0.500000 0.936042
vt 0.500000 1.000000
vt 0.333333 0.936042
vt 0.666667 0.936042
vt 0.666667 1.000000
vt 0.833333 0.936042
vt 1.000000 0.936042
vt 0.833333 0.936042
vt 0.166667 0.874649
vt -0.000000 0.874649
vt 0.333333 0.874649
vt 0.166667 0.874649
vt 0.500000 0.874649
vt 0.333333 0.874649
vt 0.666667 0.874649
vt 0.833333 0.874649
vt 1.000000 0.874649
vt 0.833333 0.874649
vt 0.166667 0.936042
vt -0.000000 1.000000
vt -0.000000 0.936042
vt 1.000000 0.880788
vt 0.833333 0.880789
vt 0.666667 0.880789
vt 0.500000 0.880788
vt 0.333333 0.880789
vt 0.166667 0.880788
vt -0.000000 0.880788
vt 0.166667 0.933280
vt -0.000000 0.933280
vt 0.333333 0.933280
vt 0.500000 0.933280
vt 0.666667 0.933280
vt 0.833333 0.933280
vt 1.000000 0.933280
s 1
usemtl Wood
f 27/1/1 23/2/2 3/3/3 12/4/4
f 25/5/5 10/6/6 13/7/7
f 8/8/8 27/1/1 26/9/9
f 27/1/1 8/8/8 20/10/10
f 16/11/11 18/12/12 8/8/8 1/13/13
f 24/14/14 25/5/5 11/15/15 6/16/16
f 15/17/17 19/18/18 10/6/6 4/19/19
f 22/20/20 26/9/9 9/21/21 2/22/22
f 14/23/23 25/5/5 13/7/7
f 19/18/18 21/24/24 13/7/7 10/6/6
f 26/9/9 27/1/1 12/4/4 9/21/21
f 9/21/21 12/4/4 21/24/24 19/18/18
f 2/22/22 9/21/21 19/18/18 15/17/17
f 6/16/16 11/15/15 18/12/12 16/11/11
f 11/15/15 14/23/23 20/10/10 18/12/12
f 14/23/23 7/25/25 17/26/26 20/10/10
f 21/24/24 3/3/3 5/27/27 13/7/7
f 20/10/10 8/8/8 18/12/12
f 13/7/7 5/27/27 7/25/25 14/23/23
f 1/28/13 8/29/8 26/9/9 22/20/20
f 4/19/19 10/6/6 25/5/5 24/14/14
f 25/5/5 14/23/23 11/15/15
f 20/10/10 17/26/26 23/2/2 27/1/1
f 12/4/4 3/3/3 21/24/24
usemtl Leaves
f 45/30/28 56/31/29 47/32/30 40/33/31
f 42/34/32 50/35/33 52/36/34 43/37/35
f 43/37/35 52/36/34 54/38/36 44/39/37
f 44/39/37 54/38/36 56/40/29 45/30/28
f 31/41/38 29/42/39 58/41/40
f 40/29/31 47/43/30 48/44/41 41/45/42
f 28/46/43 30/47/44 32/48/45 34/49/46 36/50/47 38/51/48
f 38/52/48 45/30/28 40/33/31 28/53/43
f 36/54/47 44/39/37 45/30/28 38/52/48
f 34/55/46 43/37/35 44/39/37 36/54/47
f 32/56/45 42/34/32 43/37/35 34/55/46
f 30/57/44 41/45/42 42/34/32 32/56/45
f 28/28/43 40/29/31 41/45/42 30/57/44
f 41/45/42 48/58/41 50/35/33 42/34/32
f 55/59/49 37/60/50 39/61/51 57/62/52
f 53/63/53 35/64/54 37/60/50 55/65/49
f 51/66/55 33/67/56 35/64/54 53/63/53
f 49/68/57 31/41/38 33/67/56 51/66/55
f 46/69/58 29/42/39 31/41/38 49/70/57
f 59/71/59 60/72/60 47/32/30 56/31/29
f 61/73/61 59/74/59 56/40/29 54/38/36
f 62/75/62 61/76/61 54/38/36 52/36/34
f 63/77/63 62/75/62 52/36/34 50/35/33
f 64/78/64 63/77/63 50/35/33 48/58/41
f 60/79/60 64/80/64 48/44/41 47/43/30
f 57/81/52 39/61/51 29/82/39 46/83/58
f 37/60/50 35/64/54 58/60/40
f 33/67/56 31/41/38 58/67/40
f 39/61/51 37/60/50 58/61/40
f 35/64/54 33/67/56 58/64/40
f 29/82/39 39/61/51 58/82/40
f 70/84/65 69/85/66 64/80/64 60/79/60
f 69/85/66 68/86/67 63/77/63 64/78/64
f 68/86/67 67/87/68 62/75/62 63/77/63
f 67/87/68 66/88/69 61/76/61 62/75/62
f 66/88/69 65/89/70 59/74/59 61/73/61
f 65/89/70 70/90/65 60/72/60 59/71/59
f 71/91/71 76/92/72 70/90/65 65/89/70
f 72/93/73 71/91/71 65/89/70 66/88/69
f 73/94/74 72/93/73 66/88/69 67/87/68
f 74/95/75 73/94/74 67/87/68 68/86/67
f 75/96/76 74/95/75 68/86/67 69/85/66
f 76/97/72 75/96/76 69/85/66 70/84/65
f 46/69/58 49/70/57 75/96/76 76/97/72
f 49/68/57 51/66/55 74/95/75 75/96/76
f 51/66/55 53/63/53 73/94/74 74/95/75
f 53/63/53 55/65/49 72/93/73 73/94/74
f 55/59/49 57/62/52 71/91/71 72/93/73
f 57/81/52 46/83/58 76/92/72 71/91/71
