# Blender 3.6.1
# www.blender.org
mtllib Galley.mtl
o Cube
v -3.024078 -0.710342 0.333793
v -3.024078 0.199074 1.309030
v -3.024078 -0.710342 -0.333793
v -3.024078 0.199074 -1.309030
v 2.111138 -0.710342 0.137922
v 2.111138 0.199074 0.540886
v 2.111138 -0.710342 -0.137922
v 2.111138 0.199074 -0.540886
v -3.024078 -0.510244 0.783813
v -3.024078 -0.510244 -0.783813
v 2.111138 -0.510244 -0.323869
v 2.111138 -0.510244 0.323869
v -0.211949 -1.047347 -0.341282
v -0.408352 0.199074 -1.338398
v -0.211949 -1.047347 0.341282
v -0.408352 0.199074 1.338398
v -0.408352 -0.510244 0.801398
v -0.408352 -0.510244 -0.801398
v -3.184791 -0.710342 0.000000
v -3.184791 0.199074 0.000000
v 2.741745 -0.710342 0.000000
v 2.741745 0.199074 0.000000
v 2.741745 -0.510244 0.000000
v -3.184791 -0.510244 0.000000
v -0.408352 0.199074 0.000000
v -0.211949 -1.266069 0.000000
v -2.158966 -1.047347 -0.333793
v -2.022229 0.199074 1.309030
v -2.022229 -0.510244 0.783813
v -2.022229 0.199074 -1.309030
v -2.158966 -1.047347 0.333793
v -2.022229 -0.510244 -0.783813
v -2.158966 -1.266069 0.000000
v -1.356244 0.199074 0.000000
v -3.184791 1.425976 0.000000
v -3.024078 0.870529 -1.309030
v -2.022229 0.870529 1.309030
v -3.024078 0.870529 1.309030
v -2.022229 0.870529 -1.309030
v -1.356244 1.425976 0.000000
v -1.020380 0.000000 -0.159020
v -1.020380 3.024944 -0.159020
v -0.882664 0.000000 -0.079510
v -0.882664 3.024944 -0.079510
v -0.882664 0.000000 0.079510
v -0.882664 3.024944 0.079510
v -1.020380 0.000000 0.159020
v -1.020380 3.024944 0.159020
v -1.158095 0.000000 0.079510
v -1.158095 3.024944 0.079510
v -1.158095 0.000000 -0.079510
v -1.158095 3.024944 -0.079510
v 1.466169 0.422495 -0.159020
v 1.466169 2.439589 -0.159020
v 1.603885 0.422495 -0.079510
v 1.603885 2.439589 -0.079510
v 1.603885 0.422495 0.079510
v 1.603885 2.439589 0.079510
v 1.466169 0.422495 0.159020
v 1.466169 2.439589 0.159020
v 1.328453 0.422495 0.079510
v 1.328453 2.439589 0.079510
v 1.328453 0.422495 -0.079510
v 1.328453 2.439589 -0.079510
v 1.188115 0.199074 -0.854966
v 1.743870 -1.047347 0.218010
v 1.188115 -0.510244 -0.511932
v 1.743870 -1.047347 -0.218010
v 1.188115 0.199074 0.854966
v 1.188115 -0.510244 0.511932
v 1.188115 0.199074 0.000000
v 1.743870 -1.266069 0.000000
v 1.188115 0.411421 -0.854966
v 2.111138 0.411421 -0.540886
v 2.741745 0.411421 0.000000
v 2.111138 0.411421 0.540886
v 1.188115 0.411421 0.000000
v 1.188115 0.411421 0.854966
v -1.000000 2.693429 1.600000
v -1.000000 1.259032 1.600000
v -1.000000 2.693429 -1.600000
v -1.000000 1.259032 -1.600000
v 1.474009 2.274252 0.844558
v 1.474009 1.437085 0.844558
v 1.474009 2.274252 -0.844558
v 1.474009 1.437085 -0.844558
v -0.731659 1.706991 1.600000
v -0.731659 2.245470 1.600000
v -0.731659 2.245470 -1.600000
v -0.731659 1.706991 -1.600000
v 1.713542 1.671257 0.844558
v 1.713542 2.040080 0.844558
v 1.713542 2.040080 -0.844558
v 1.713542 1.671257 -0.844558
v -0.791024 2.914115 0.448234
v -0.791024 2.914115 -0.448234
v -0.791039 1.072580 -0.448317
v -0.791039 1.072580 0.448317
v -0.522905 1.647741 -0.449456
v -0.522905 1.647741 0.449456
v -0.522903 2.338905 -0.449446
v -0.522903 2.338905 0.449446
v 1.612736 2.341767 0.440969
v 1.612736 2.341767 -0.440969
v 1.612873 1.346763 -0.440571
v 1.612873 1.346763 0.440571
v 1.851194 1.625506 0.444096
v 1.851194 1.625506 -0.444096
v 1.851174 2.063285 -0.444155
v 1.851174 2.063285 0.444155
vn -0.9826 -0.1856 -0.0000
vn -0.9996 -0.0284 -0.0000
vn -0.9909 -0.0210 -0.1330
vn -0.9803 -0.0977 -0.1717
vn 0.1896 -0.4565 -0.8693
vn 0.2595 -0.3141 -0.9132
vn 0.4242 -0.1428 -0.8942
vn 0.3513 -0.3149 -0.8817
vn 0.4331 -0.2812 0.8563
vn 0.6064 -0.0652 0.7925
vn 0.4242 -0.1428 0.8942
vn 0.3513 -0.3149 0.8817
vn -0.0359 -0.6506 0.7585
vn -0.0059 -0.5972 0.8021
vn -0.0000 -0.5951 0.8037
vn -0.0679 -0.6806 0.7295
vn 0.3281 -0.4261 0.8431
vn 0.3199 -0.4095 0.8544
vn 0.3075 -0.3974 0.8646
vn 0.1881 -0.5584 0.8079
vn -0.0000 -0.0000 -1.0000
vn -0.1412 -0.7965 0.5879
vn -0.2580 -0.8086 0.5288
vn 0.1881 -0.5584 -0.8079
vn 0.3075 -0.3974 -0.8646
vn -0.9515 -0.3077 -0.0000
vn -0.9177 -0.2968 -0.2639
vn -0.1412 -0.7965 -0.5879
vn -0.0359 -0.6506 -0.7585
vn 0.0700 -0.5787 -0.8125
vn 0.0314 -0.7052 -0.7084
vn 0.1896 -0.4565 0.8693
vn 0.0700 -0.5787 0.8125
vn 0.0314 -0.7052 0.7084
vn -0.0000 1.0000 -0.0000
vn -0.0010 -0.8392 0.5438
vn 0.0092 -0.8142 0.5805
vn 0.2595 -0.3141 0.9132
vn 0.0812 -0.5671 0.8196
vn -0.0059 -0.5972 -0.8021
vn 0.0812 -0.5671 -0.8196
vn 0.0092 -0.8142 -0.5805
vn -0.0010 -0.8392 -0.5438
vn -0.9177 -0.2968 0.2639
vn -0.9803 -0.0977 0.1717
vn 0.4331 -0.2812 -0.8563
vn 0.3199 -0.4095 -0.8544
vn 0.8913 -0.0000 0.4535
vn 1.0000 -0.0000 -0.0000
vn 0.3281 -0.4261 -0.8431
vn 0.6064 -0.0652 -0.7925
vn -0.9909 -0.0210 0.1330
vn -0.2580 -0.8086 -0.5288
vn -0.3965 -0.8399 -0.3706
vn -0.0679 -0.6806 -0.7295
vn -0.0000 -0.5951 -0.8037
vn -0.3965 -0.8399 0.3706
vn -0.0000 0.9206 0.3906
vn -0.0000 0.9206 -0.3906
vn 0.8913 -0.0000 -0.4535
vn -1.0000 -0.0000 -0.0000
vn -0.9925 -0.0000 -0.1219
vn -0.0000 -0.0000 1.0000
vn -0.9925 -0.0000 0.1219
vn 0.5000 -0.0000 -0.8660
vn 0.5000 -0.0000 0.8660
vn -0.5000 -0.0000 0.8660
vn -0.5000 -0.0000 -0.8660
vn -0.0000 -1.0000 -0.0000
vn 0.0194 -0.7875 -0.6160
vn 0.4725 -0.0000 0.8814
vn 0.3221 -0.0000 0.9467
vn 0.6510 -0.0000 0.7590
vn 0.0194 -0.7875 0.6160
vn 0.4725 -0.0000 -0.8814
vn 0.6510 -0.0000 -0.7590
vn 0.3221 -0.0000 -0.9467
vn 0.9659 -0.2387 -0.1005
vn 0.8921 -0.4406 -0.1003
vn 0.8666 -0.4546 -0.2058
vn 0.9506 -0.2391 -0.1980
vn 0.6940 0.6490 0.3118
vn 0.8616 0.3780 0.3388
vn 0.9047 0.3886 0.1748
vn 0.7364 0.6581 0.1569
vn 0.9005 -0.3931 -0.1859
vn 0.8604 -0.3636 -0.3572
vn 0.8616 0.3780 -0.3388
vn 0.9047 0.3886 -0.1748
vn 0.9506 -0.2391 0.1980
vn 0.9659 -0.2387 0.1005
vn 0.9650 0.2407 0.1044
vn 0.9504 0.2344 0.2044
vn 0.8604 -0.3636 0.3572
vn 0.9005 -0.3931 0.1859
vn 0.8666 -0.4546 0.2058
vn 0.8921 -0.4406 0.1003
vn 0.9504 0.2344 -0.2044
vn 0.9650 0.2407 -0.1044
vn 0.7364 0.6581 -0.1569
vn 0.6940 0.6490 -0.3118
vn 0.8917 0.4401 -0.1057
vn 0.8641 0.4533 -0.2186
vn 0.7352 -0.6559 -0.1712
vn 0.6858 -0.6413 -0.3442
vn 0.6858 -0.6413 0.3442
vn 0.7352 -0.6559 0.1712
vn 0.8917 0.4401 0.1057
vn 0.8641 0.4533 0.2186
vt 0.500000 0.125000
vt 0.625000 0.125000
vt 0.625000 0.250000
vt 0.500000 0.250000
vt 0.500000 0.437500
vt 0.625000 0.437500
vt 0.625000 0.500000
vt 0.500000 0.500000
vt 0.500000 0.625000
vt 0.625000 0.625000
vt 0.625000 0.750000
vt 0.500000 0.750000
vt 0.500000 0.937500
vt 0.625000 0.937500
vt 0.625000 1.000000
vt 0.500000 1.000000
vt 0.312500 0.625000
vt 0.375000 0.625000
vt 0.375000 0.750000
vt 0.312500 0.750000
vt 0.625000 0.312500
vt 0.375000 0.937500
vt 0.375000 1.000000
vt 0.375000 0.437500
vt 0.375000 0.500000
vt 0.375000 0.125000
vt 0.375000 0.250000
vt 0.375000 0.312500
vt 0.500000 0.312500
vt 0.500000 0.375000
vt 0.375000 0.375000
vt 0.375000 0.812500
vt 0.500000 0.812500
vt 0.500000 0.875000
vt 0.375000 0.875000
vt 0.687500 0.625000
vt 0.750000 0.625000
vt 0.750000 0.750000
vt 0.687500 0.750000
vt 0.187500 0.625000
vt 0.250000 0.625000
vt 0.250000 0.750000
vt 0.187500 0.750000
vt 0.625000 0.812500
vt 0.625000 0.875000
vt 0.625000 0.375000
vt 0.187500 0.500000
vt 0.250000 0.500000
vt 0.687500 0.500000
vt 0.750000 0.500000
vt 0.375000 0.000000
vt 0.500000 0.000000
vt 0.812500 0.750000
vt 0.812500 0.625000
vt 0.312500 0.500000
vt 0.625000 0.000000
vt 0.812500 0.500000
vt 0.125000 0.500000
vt 0.125000 0.625000
vt 0.125000 0.750000
vt 0.875000 0.625000
vt 0.875000 0.750000
vt 0.875000 0.500000
vt 1.000000 0.500000
vt 1.000000 1.000000
vt 0.833333 1.000000
vt 0.833333 0.500000
vt 0.666667 1.000000
vt 0.666667 0.500000
vt 0.500000 1.000000
vt 0.500000 0.500000
vt 0.333333 1.000000
vt 0.333333 0.500000
vt 0.457846 0.370000
vt 0.250000 0.490000
vt 0.042154 0.370000
vt 0.042154 0.130000
vt 0.250000 0.010000
vt 0.457846 0.130000
vt 0.166667 1.000000
vt 0.166667 0.500000
vt -0.000000 1.000000
vt -0.000000 0.500000
vt 0.750000 0.490000
vt 0.957846 0.370000
vt 0.957846 0.130000
vt 0.750000 0.010000
vt 0.542154 0.130000
vt 0.542154 0.370000
vt 0.687702 0.640455
vt 1.000000 0.640099
vt 0.687702 1.000000
vt 0.000000 0.000000
vt 0.181216 0.000000
vt 0.181216 0.237049
vt 0.000000 0.238935
vt 0.818784 0.762916
vt 0.818784 1.000000
vt 0.181216 1.000000
vt 0.181216 0.762951
vt 0.687702 0.000000
vt 0.687702 0.359545
vt 0.312298 0.359548
vt 0.312298 0.000000
vt 0.818784 0.000000
vt 0.818784 0.237084
vt 0.181216 0.237049
vt 1.000000 0.000000
vt 1.000000 0.359901
vt 0.687702 0.359545
vt 0.687702 0.640455
vt 0.312298 1.000000
vt 0.312298 0.640452
vt 0.000000 0.761065
vt 0.181216 0.762951
vt 0.000000 1.000000
vt 0.000000 0.640073
vt 0.818784 0.762916
vt 1.000000 0.760830
vt 1.000000 0.239170
vt 0.818784 0.237084
vt 0.000000 0.359927
vt 0.312298 0.359548
s 1
usemtl Wood
f 24/1/1 20/2/2 4/3/3 10/4/4
f 67/5/5 65/6/6 8/7/7 11/8/8
f 23/9/9 22/10/10 6/11/11 12/12/12
f 29/13/13 28/14/14 2/15/15 9/16/16
f 72/17/17 21/18/18 5/19/19 66/20/20
f 30/21/21 4/3/21 36/3/21 39/21/21
f 31/22/22 29/13/13 9/16/16 1/23/23
f 21/18/18 23/9/9 12/12/12 5/19/19
f 68/24/24 67/5/5 11/8/8 7/25/25
f 19/26/26 24/1/1 10/4/4 3/27/27
f 27/28/28 32/29/29 18/30/30 13/31/31
f 66/32/20 70/33/32 17/34/33 15/35/34
f 71/36/35 25/37/35 16/38/35 69/39/35
f 33/40/36 26/41/37 15/42/34 31/43/22
f 70/33/32 69/44/38 16/45/39 17/34/33
f 32/29/29 30/21/40 14/46/41 18/30/30
f 27/47/28 13/48/31 26/41/42 33/40/43
f 65/49/35 14/50/35 25/37/35 71/36/35
f 1/51/44 9/52/45 24/1/1 19/26/26
f 7/25/25 11/8/8 23/9/46 21/18/47
f 28/53/48 34/54/49 40/54/49 37/53/48
f 68/55/24 7/25/25 21/18/47 72/17/50
f 11/8/8 8/7/7 22/10/51 23/9/46
f 9/52/45 2/56/52 20/2/2 24/1/1
f 14/50/35 30/57/35 34/54/35 25/37/35
f 3/58/53 27/47/28 33/40/54 19/59/54
f 10/4/55 4/3/56 30/21/40 32/29/29
f 19/59/57 33/40/57 31/43/22 1/60/23
f 3/27/53 10/4/55 32/29/29 27/28/28
f 15/35/34 17/34/33 29/13/13 31/22/22
f 25/37/35 34/54/35 28/53/35 16/38/35
f 17/34/33 16/45/39 28/14/14 29/13/13
f 40/54/58 35/61/58 38/62/58 37/53/58
f 39/57/59 36/63/59 35/61/59 40/54/59
f 34/54/49 30/57/60 39/57/60 40/54/49
f 4/3/3 20/2/2 35/2/61 36/3/62
f 2/15/63 28/14/63 37/14/63 38/15/63
f 20/2/2 2/56/52 38/56/64 35/2/61
f 41/64/65 42/65/65 44/66/65 43/67/65
f 43/67/49 44/66/49 46/68/49 45/69/49
f 45/69/66 46/68/66 48/70/66 47/71/66
f 47/71/67 48/70/67 50/72/67 49/73/67
f 44/74/35 42/75/35 52/76/35 50/77/35 48/78/35 46/79/35
f 49/73/61 50/72/61 52/80/61 51/81/61
f 51/81/68 52/80/68 42/82/68 41/83/68
f 41/84/69 43/85/69 45/86/69 47/87/69 49/88/69 51/89/69
f 53/64/65 54/65/65 56/66/65 55/67/65
f 55/67/49 56/66/49 58/68/49 57/69/49
f 57/69/66 58/68/66 60/70/66 59/71/66
f 59/71/67 60/70/67 62/72/67 61/73/67
f 56/74/35 54/75/35 64/76/35 62/77/35 60/78/35 58/79/35
f 61/73/61 62/72/61 64/80/61 63/81/61
f 63/81/68 64/80/68 54/82/68 53/83/68
f 53/84/69 55/85/69 57/86/69 59/87/69 61/88/69 63/89/69
f 13/48/31 68/55/24 72/17/70 26/41/42
f 69/44/38 6/11/11 76/11/71 78/44/72
f 12/12/12 6/11/11 69/44/38 70/33/32
f 6/11/11 22/10/10 75/10/73 76/11/71
f 5/19/19 12/12/12 70/33/32 66/32/20
f 13/31/31 18/30/30 67/5/5 68/24/24
f 26/41/37 72/17/74 66/20/20 15/42/34
f 18/30/30 14/46/41 65/6/6 67/5/5
f 74/7/35 73/49/35 77/36/35 75/10/35
f 75/10/35 77/36/35 78/39/35 76/11/35
f 71/36/61 69/39/61 78/39/61 77/36/61
f 22/10/51 8/7/7 74/7/75 75/10/76
f 65/49/61 71/36/61 77/36/61 73/49/61
f 8/7/7 65/6/6 73/6/77 74/7/75
usemtl Sail
f 99/90/78 97/91/79 82/65/80 90/92/81
f 83/93/82 92/94/83 110/95/84 103/96/85
f 108/97/86 94/98/87 93/99/88 109/100/89
f 87/101/90 100/102/91 102/103/92 88/104/93
f 91/105/94 107/106/95 110/107/84 92/94/83
f 87/101/90 80/108/96 98/109/97 100/110/91
f 99/111/78 90/92/81 89/112/98 101/113/99
f 104/114/100 109/115/89 93/99/88 85/116/101
f 96/117/102 101/113/99 89/112/98 81/116/103
f 108/118/86 105/119/104 86/65/105 94/98/87
f 91/105/94 84/108/106 106/120/107 107/121/95
f 97/91/79 99/90/78 100/110/91 98/109/97
f 99/111/78 101/113/99 102/103/92 100/102/91
f 101/113/99 96/117/102 95/122/108 102/123/92
f 108/97/86 109/100/89 110/107/84 107/106/95
f 105/119/104 108/118/86 107/121/95 106/120/107
f 109/115/89 104/114/100 103/96/85 110/95/84
f 79/93/109 88/104/93 102/123/92 95/122/108
