# Blender 4.1.1
# www.blender.org
mtllib arrow.mtl
o Cylinder
v 0.000000 0.000000 -0.027893
v 0.000000 2.000000 -0.037991
v 0.027893 0.000000 0.000000
v 0.037991 2.000000 0.000000
v 0.000000 0.000000 0.027893
v 0.000000 2.000000 0.037991
v -0.027893 0.000000 0.000000
v -0.037991 2.000000 0.000000
v 0.118179 2.000000 0.000000
v 0.000000 2.000000 -0.118179
v 0.000000 2.000000 0.118179
v -0.118179 2.000000 0.000000
v 0.000000 1.118283 0.060892
v 0.060892 1.118283 0.000000
v 0.000000 2.332456 0.000000
v 0.000000 1.118283 -0.060892
v 0.000000 0.000000 -0.141866
v 0.141866 0.000000 0.000000
v 0.000000 0.000000 0.141866
v -0.141866 0.000000 0.000000
v -0.063011 1.118283 0.000000
vn 0.7070 0.0184 -0.7070
vn 0.7070 0.0184 0.7070
vn -0.0000 -1.0000 -0.0000
vn -0.6994 0.0192 0.7144
vn -0.6994 0.0192 -0.7144
vn 0.6858 0.2438 0.6858
vn -0.6986 -0.0215 0.7152
vn -0.6858 0.2438 0.6858
vn 0.6858 0.2438 -0.6858
vn -0.6858 0.2438 -0.6858
vn -0.6986 -0.0215 -0.7152
vn 0.7070 -0.0209 0.7070
vn 0.7070 -0.0209 -0.7070
vn 1.0000 -0.0000 -0.0000
vn -0.0000 -0.0000 1.0000
vn -0.0000 -0.0000 -1.0000
vt 1.000000 0.675000
vt 1.000000 1.000000
vt 0.750000 1.000000
vt 0.750000 0.675000
vt 0.500000 1.000000
vt 0.500000 0.675000
vt 0.000000 1.000000
vt 0.250000 1.000000
vt 0.250000 0.675000
vt 0.000000 0.675000
vt 0.500000 0.500000
vt 0.250000 0.500000
vt 0.000000 0.500000
vt 0.750000 0.500000
vt 1.000000 0.500000
s 0
usemtl Material.001
f 16/1/1 2/2/1 4/3/1 14/4/1
f 14/4/2 4/3/2 6/5/2 13/6/2
f 13/6/4 6/5/4 8/8/4 21/9/4
f 21/9/5 8/8/5 2/7/5 16/10/5
f 5/11/7 13/6/7 21/9/7 7/12/7
f 7/12/11 21/9/11 16/10/11 1/13/11
f 3/14/12 14/4/12 13/6/12 5/11/12
f 1/15/13 16/1/13 14/4/13 3/14/13
usemtl Material.002
f 5/11/14 13/6/14 19/11/14
f 16/10/14 1/13/14 17/13/14
f 7/12/15 21/9/15 20/12/15
f 3/14/16 14/4/16 18/14/16
usemtl Material.003
f 2/7/3 8/8/3 12/8/3 10/7/3
f 11/5/6 9/3/6 15/5/6
f 6/5/3 4/3/3 9/3/3 11/5/3
f 4/3/3 2/2/3 10/2/3 9/3/3
f 8/8/3 6/5/3 11/5/3 12/8/3
f 12/8/8 11/5/8 15/8/8
f 9/3/9 10/2/9 15/3/9
f 10/7/10 12/8/10 15/7/10
