# Blender 4.1.1
# www.blender.org
mtllib minecart.mtl
o Cube.001
v -0.195231 -0.195231 0.383939
v -0.261001 0.219349 0.513282
v -0.195231 -0.195231 -0.383939
v -0.261001 0.219349 -0.513282
v 0.195231 -0.195231 0.383939
v 0.261001 0.219349 0.513282
v 0.195231 -0.195231 -0.383939
v 0.261001 0.219349 -0.513282
v -0.243467 -0.024118 0.478799
v -0.243467 -0.024118 -0.478799
v 0.243467 -0.024118 -0.478799
v 0.243467 -0.024118 0.478799
v 0.000000 -0.195231 -0.429361
v 0.000000 0.219349 -0.574006
v 0.000000 -0.195231 0.429361
v 0.000000 0.219349 0.574006
v 0.000000 -0.024118 0.535444
v 0.000000 -0.024118 -0.535444
v -0.222904 0.219349 0.470585
v -0.222904 0.219349 -0.470585
v 0.000000 0.219349 -0.526258
v 0.222904 0.219349 -0.470585
v 0.222904 0.219349 0.470585
v 0.000000 0.219349 0.526258
v -0.148526 -0.083000 0.313562
v -0.148526 -0.083000 -0.313562
v 0.000000 -0.083000 -0.350658
v 0.148526 -0.083000 -0.313562
v 0.148526 -0.083000 0.313562
v 0.000000 -0.083000 0.350658
v -0.362885 -0.146166 0.260032
v 0.362885 -0.146166 0.260032
v -0.362885 -0.186134 0.300000
v 0.362885 -0.186133 0.300000
v -0.362885 -0.146166 0.339967
v 0.362885 -0.146166 0.339967
v -0.362885 -0.106199 0.300000
v 0.362885 -0.106198 0.300000
v 0.000000 -0.146166 0.260032
v 0.000000 -0.186133 0.300000
v 0.000000 -0.146166 0.339967
v -0.000000 -0.106198 0.300000
v 0.296953 -0.146166 0.260032
v 0.296953 -0.186133 0.300000
v 0.296953 -0.146166 0.339967
v 0.296953 -0.106198 0.300000
v 0.329947 -0.306036 0.300000
v 0.329947 -0.146166 0.140130
v 0.296953 -0.146166 0.140130
v 0.329947 -0.146166 0.459870
v 0.329947 0.013704 0.300000
v 0.296953 -0.306036 0.300000
v 0.296953 -0.146166 0.459870
v 0.296953 0.013704 0.300000
v -0.296953 -0.146166 0.260032
v 0.362885 -0.172983 0.326817
v -0.296953 -0.186133 0.300000
v 0.362885 -0.119349 0.273183
v -0.000000 -0.119349 0.273183
v 0.000000 -0.172983 0.326817
v 0.296953 -0.119349 0.273183
v 0.296953 -0.172983 0.326817
v -0.296953 -0.146166 0.339967
v -0.296953 -0.106199 0.300000
v 0.329947 -0.253436 0.407270
v 0.329947 -0.038896 0.192730
v 0.296953 -0.038896 0.192730
v 0.296953 -0.253436 0.407270
v -0.329947 -0.306036 0.300000
v 0.362885 -0.172983 0.273183
v -0.329947 -0.146166 0.140130
v 0.362885 -0.119349 0.326817
v -0.000000 -0.119349 0.326817
v 0.000000 -0.172983 0.273183
v 0.296953 -0.119349 0.326817
v 0.296953 -0.172983 0.273183
v -0.296953 -0.146166 0.140130
v -0.329947 -0.146166 0.459870
v 0.329947 -0.253436 0.192730
v 0.329947 -0.038896 0.407270
v 0.296953 -0.038896 0.407270
v 0.296953 -0.253436 0.192730
v -0.329947 0.013704 0.300000
v 0.362885 -0.146166 0.300000
v -0.296953 -0.306036 0.300000
v -0.296953 -0.146166 0.459870
v -0.296953 0.013704 0.300000
v -0.362885 -0.172983 0.326817
v -0.362885 -0.119349 0.273183
v -0.296953 -0.119349 0.273183
v -0.296953 -0.172983 0.326817
v -0.329947 -0.253436 0.407270
v -0.329947 -0.038896 0.192730
v -0.296953 -0.038896 0.192730
v -0.296953 -0.253436 0.407270
v -0.362885 -0.172983 0.273183
v -0.362885 -0.119349 0.326817
v -0.296953 -0.119349 0.326817
v -0.296953 -0.172983 0.273183
v -0.329947 -0.253436 0.192730
v -0.329947 -0.038896 0.407270
v -0.296953 -0.038896 0.407270
v -0.296953 -0.253436 0.192730
v -0.362885 -0.146166 0.300000
v -0.362885 -0.146166 -0.339968
v 0.362885 -0.146166 -0.339968
v -0.362885 -0.186134 -0.300000
v 0.362885 -0.186133 -0.300000
v -0.362885 -0.146166 -0.260033
v 0.362885 -0.146166 -0.260033
v -0.362885 -0.106199 -0.300000
v 0.362885 -0.106198 -0.300000
v 0.000000 -0.146166 -0.339968
v 0.000000 -0.186133 -0.300000
v 0.000000 -0.146166 -0.260033
v -0.000000 -0.106198 -0.300000
v 0.296953 -0.146166 -0.339968
v 0.296953 -0.186133 -0.300000
v 0.296953 -0.146166 -0.260033
v 0.296953 -0.106198 -0.300000
v 0.329947 -0.306036 -0.300000
v 0.329947 -0.146166 -0.459870
v 0.296953 -0.146166 -0.459870
v 0.329947 -0.146166 -0.140130
v 0.329947 0.013704 -0.300000
v 0.296953 -0.306036 -0.300000
v 0.296953 -0.146166 -0.140130
v 0.296953 0.013704 -0.300000
v -0.296953 -0.146166 -0.339968
v 0.362885 -0.172983 -0.273183
v -0.296953 -0.186133 -0.300000
v 0.362885 -0.119349 -0.326817
v -0.000000 -0.119349 -0.326817
v 0.000000 -0.172983 -0.273183
v 0.296953 -0.119349 -0.326817
v 0.296953 -0.172983 -0.273183
v -0.296953 -0.146166 -0.260033
v -0.296953 -0.106199 -0.300000
v 0.329947 -0.253436 -0.192730
v 0.329947 -0.038896 -0.407270
v 0.296953 -0.038896 -0.407270
v 0.296953 -0.253436 -0.192730
v -0.329947 -0.306036 -0.300000
v 0.362885 -0.172983 -0.326817
v -0.329947 -0.146166 -0.459870
v 0.362885 -0.119349 -0.273183
v -0.000000 -0.119349 -0.273183
v 0.000000 -0.172983 -0.326817
v 0.296953 -0.119349 -0.273183
v 0.296953 -0.172983 -0.326817
v -0.296953 -0.146166 -0.459870
v -0.329947 -0.146166 -0.140130
v 0.329947 -0.253436 -0.407270
v 0.329947 -0.038896 -0.192730
v 0.296953 -0.038896 -0.192730
v 0.296953 -0.253436 -0.407270
v -0.329947 0.013704 -0.300000
v 0.362885 -0.146166 -0.300000
v -0.296953 -0.306036 -0.300000
v -0.296953 -0.146166 -0.140130
v -0.296953 0.013704 -0.300000
v -0.362885 -0.172983 -0.273183
v -0.362885 -0.119349 -0.326817
v -0.296953 -0.119349 -0.326817
v -0.296953 -0.172983 -0.273183
v -0.329947 -0.253436 -0.192730
v -0.329947 -0.038896 -0.407270
v -0.296953 -0.038896 -0.407270
v -0.296953 -0.253436 -0.192730
v -0.362885 -0.172983 -0.326817
v -0.362885 -0.119349 -0.273183
v -0.296953 -0.119349 -0.273183
v -0.296953 -0.172983 -0.326817
v -0.329947 -0.253436 -0.407270
v -0.329947 -0.038896 -0.192730
v -0.296953 -0.038896 -0.192730
v -0.296953 -0.253436 -0.407270
v -0.362885 -0.146166 -0.300000
vn -0.9887 -0.1498 -0.0000
vn -0.9974 -0.0718 -0.0000
vn -0.0000 -0.3396 -0.9406
vn -0.0000 -0.1564 -0.9877
vn 0.2240 -0.1525 -0.9626
vn 0.2138 -0.3311 -0.9190
vn 0.9887 -0.1498 -0.0000
vn 0.9974 -0.0718 -0.0000
vn -0.0000 -0.3396 0.9406
vn -0.0000 -0.1564 0.9877
vn -0.2240 -0.1525 0.9626
vn -0.2138 -0.3311 0.9190
vn -0.0000 -1.0000 -0.0000
vn -0.0000 1.0000 -0.0000
vn -0.0000 -0.5269 0.8499
vn -0.1940 -0.5169 0.8338
vn 0.9625 -0.2713 -0.0000
vn -0.0000 -0.5269 -0.8499
vn 0.1940 -0.5169 -0.8338
vn -0.9625 -0.2713 -0.0000
vn -0.1940 -0.5169 -0.8338
vn -0.2138 -0.3311 -0.9190
vn 0.1940 -0.5169 0.8338
vn 0.2138 -0.3311 0.9190
vn 0.2240 -0.1525 0.9626
vn -0.2240 -0.1525 -0.9626
vn 0.2111 0.4909 -0.8452
vn -0.0000 0.5022 -0.8647
vn -0.2111 0.4909 -0.8452
vn -0.2111 0.4909 0.8452
vn -0.0000 0.5022 0.8647
vn 0.2111 0.4909 0.8452
vn -0.9710 0.2389 -0.0000
vn 0.9710 0.2389 -0.0000
vn 0.9856 0.1195 -0.1195
vn 0.9852 -0.0000 -0.1713
vn 0.9643 -0.0000 -0.2649
vn 0.9606 0.1966 -0.1966
vn -1.0000 -0.0000 -0.0000
vn 1.0000 -0.0000 -0.0000
vn 0.9852 0.1713 -0.0000
vn 0.9856 0.1195 0.1195
vn 0.9643 0.2649 -0.0000
vn 0.9606 0.1966 0.1966
vn -0.9856 -0.1195 -0.1195
vn -0.9606 -0.1966 -0.1966
vn -0.9643 -0.2649 -0.0000
vn -0.9852 -0.1713 -0.0000
vn -0.0000 0.8979 0.4403
vn -0.9856 -0.1195 0.1195
vn -0.9606 -0.1966 0.1966
vn -0.9643 -0.0000 0.2649
vn -0.9852 -0.0000 0.1713
vn -0.9856 0.1195 0.1195
vn -0.9852 0.1713 -0.0000
vn -0.9856 0.1195 -0.1195
vn -0.0000 -0.4403 0.8979
vn -0.0000 0.4403 -0.8979
vn -0.0000 -0.8979 -0.4403
vn 0.9856 -0.1195 0.1195
vn 0.9852 -0.0000 0.1713
vn 0.9643 -0.0000 0.2649
vn 0.9606 -0.1966 0.1966
vn 0.9856 -0.1195 -0.1195
vn 0.9852 -0.1713 -0.0000
vn 0.9643 -0.2649 -0.0000
vn 0.9606 -0.1966 -0.1966
vn -0.0000 0.8979 -0.4403
vn -0.0000 -0.8979 0.4403
vn -0.9606 0.1966 0.1966
vn -0.9643 0.2649 -0.0000
vn -0.9606 0.1966 -0.1966
vn -0.9643 -0.0000 -0.2649
vn -0.9852 -0.0000 -0.1713
vn -0.0000 0.4403 0.8979
vn -0.0000 -0.4403 -0.8979
vt 0.500000 0.000000
vt 0.625000 0.000000
vt 0.625000 0.250000
vt 0.500000 0.250000
vt 0.500000 0.375000
vt 0.625000 0.375000
vt 0.625000 0.500000
vt 0.500000 0.500000
vt 0.625000 0.750000
vt 0.500000 0.750000
vt 0.500000 0.875000
vt 0.625000 0.875000
vt 0.625000 1.000000
vt 0.500000 1.000000
vt 0.250000 0.500000
vt 0.375000 0.500000
vt 0.375000 0.750000
vt 0.250000 0.750000
vt 0.375000 0.875000
vt 0.375000 1.000000
vt 0.375000 0.375000
vt 0.375000 0.000000
vt 0.375000 0.250000
vt 0.125000 0.500000
vt 0.125000 0.750000
vt 0.750000 0.500000
vt 0.875000 0.500000
vt 0.875000 0.750000
vt 0.750000 0.750000
vt 0.130000 0.370000
vt 0.250000 0.490000
vt 0.125000 0.975000
vt 0.250000 0.975000
vt 0.250000 0.250000
vt 0.010000 0.250000
vt 0.130000 0.130000
vt 0.625000 0.975000
vt 0.750000 0.975000
vt 0.370000 0.370000
vt 0.490000 0.250000
vt 0.375000 0.975000
vt 0.370000 0.130000
vt 0.250000 0.010000
vt 0.500000 0.975000
vt 0.000000 0.975000
vt 0.000000 0.750000
vt 0.875000 0.975000
vt 0.250000 1.000000
vt 0.875000 1.000000
vt 0.750000 1.000000
vt 0.125000 1.000000
vt 0.000000 1.000000
vt 1.000000 0.975000
vt 1.000000 1.000000
vt 1.000000 0.750000
s 1
usemtl Metal
f 9/1/1 2/2/2 4/3/2 10/4/1
f 18/5/3 14/6/4 8/7/5 11/8/6
f 11/8/7 8/7/8 6/9/8 12/10/7
f 17/11/9 16/12/10 2/13/11 9/14/12
f 13/15/13 7/16/13 5/17/13 15/18/13
f 2/13/14 16/12/14 24/12/14 19/13/14
f 15/19/15 17/11/9 9/14/12 1/20/16
f 7/16/17 11/8/7 12/10/7 5/17/17
f 13/21/18 18/5/3 11/8/6 7/16/19
f 1/22/20 9/1/1 10/4/1 3/23/20
f 3/23/21 10/4/22 18/5/3 13/21/18
f 5/17/23 12/10/24 17/11/9 15/19/15
f 4/3/14 2/2/14 19/2/14 20/3/14
f 3/24/13 13/15/13 15/18/13 1/25/13
f 12/10/24 6/9/25 16/12/10 17/11/9
f 10/4/22 4/3/26 14/6/4 18/5/3
f 19/13/27 24/12/28 30/12/28 25/13/27
f 24/12/28 23/9/29 29/9/29 30/12/28
f 8/7/14 14/6/14 21/6/14 22/7/14
f 16/12/14 6/9/14 23/9/14 24/12/14
f 14/6/14 4/3/14 20/3/14 21/6/14
f 6/9/14 8/7/14 22/7/14 23/9/14
f 27/26/14 26/27/14 25/28/14 30/29/14
f 28/7/14 27/26/14 30/29/14 29/9/14
f 22/7/30 21/6/31 27/6/31 28/7/30
f 21/6/31 20/3/32 26/3/32 27/6/31
f 23/9/33 22/7/33 28/7/33 29/9/33
f 20/3/34 19/2/34 25/2/34 26/3/34
f 58/30/35 32/31/36 48/31/37 66/30/38
f 61/32/39 46/33/39 54/33/39 67/32/39
f 84/34/40 58/30/35 38/35/41 72/36/42
f 62/37/39 44/38/39 52/38/39 68/37/39
f 72/36/42 38/35/41 51/35/43 80/36/44
f 96/39/45 100/39/46 69/40/47 33/40/48
f 73/17/49 42/18/49 64/33/49 98/41/49
f 88/42/50 92/42/51 78/43/52 35/43/53
f 104/34/39 97/36/54 37/35/55 89/30/56
f 95/37/57 86/44/57 78/14/57 92/13/57
f 59/25/58 61/32/58 43/45/58 39/46/58
f 73/17/49 75/41/49 46/33/49 42/18/49
f 60/9/57 62/37/57 45/44/57 41/10/57
f 74/28/59 76/47/59 44/38/59 40/29/59
f 102/41/49 87/33/49 83/48/49 101/20/49
f 91/37/40 95/37/40 85/38/40 57/38/40
f 98/41/40 102/41/40 86/44/40 63/44/40
f 60/9/57 41/10/57 63/44/57 91/37/57
f 82/47/59 79/49/59 47/50/59 52/38/59
f 68/37/57 65/13/57 50/14/57 53/44/57
f 81/41/49 80/20/49 51/48/49 54/33/49
f 67/32/58 66/51/58 48/52/58 49/45/58
f 76/47/39 43/53/39 49/53/39 82/47/39
f 56/42/60 36/43/61 50/43/62 65/42/63
f 75/41/39 45/44/39 53/44/39 81/41/39
f 70/39/64 34/40/65 47/40/66 79/39/67
f 34/40/65 56/42/60 65/42/63 47/40/66
f 54/33/68 51/48/68 66/51/68 67/32/68
f 52/38/69 47/50/69 65/13/69 68/37/69
f 97/36/54 101/36/70 83/35/71 37/35/55
f 89/30/56 93/30/72 71/31/73 31/31/74
f 40/29/69 44/38/69 62/37/69 60/9/69
f 42/18/68 46/33/68 61/32/68 59/25/68
f 90/32/40 94/32/40 87/33/40 64/33/40
f 59/25/58 39/46/58 55/45/58 90/32/58
f 33/40/48 69/40/47 92/42/51 88/42/50
f 45/44/39 62/37/39 68/37/39 53/44/39
f 70/39/64 32/31/36 58/30/35 84/34/40
f 43/45/39 61/32/39 67/32/39 49/45/39
f 38/35/41 58/30/35 66/30/38 51/35/43
f 34/40/65 70/39/64 84/34/40 56/42/60
f 87/33/68 94/32/68 93/51/68 83/48/68
f 32/31/36 70/39/64 79/39/67 48/31/37
f 46/33/39 75/41/39 81/41/39 54/33/39
f 44/38/39 76/47/39 82/47/39 52/38/39
f 53/44/75 50/14/75 80/20/75 81/41/75
f 49/53/76 48/54/76 79/49/76 82/47/76
f 94/32/58 77/45/58 71/52/58 93/51/58
f 74/28/59 40/29/59 57/38/59 99/47/59
f 39/55/76 43/53/76 76/47/76 74/28/76
f 41/10/75 45/44/75 75/41/75 73/17/75
f 103/47/59 85/38/59 69/50/59 100/49/59
f 99/47/40 103/47/40 77/53/40 55/53/40
f 85/38/69 95/37/69 92/13/69 69/50/69
f 36/43/61 72/36/42 80/36/44 50/43/62
f 56/42/60 84/34/40 72/36/42 36/43/61
f 40/29/69 60/9/69 91/37/69 57/38/69
f 42/18/68 59/25/68 90/32/68 64/33/68
f 63/44/40 86/44/40 95/37/40 91/37/40
f 96/39/45 104/34/39 89/30/56 31/31/74
f 55/45/40 77/45/40 94/32/40 90/32/40
f 37/35/55 83/35/71 93/30/72 89/30/56
f 33/40/48 88/42/50 104/34/39 96/39/45
f 31/31/74 71/31/73 100/39/46 96/39/45
f 64/33/40 87/33/40 102/41/40 98/41/40
f 57/38/40 85/38/40 103/47/40 99/47/40
f 86/44/75 102/41/75 101/20/75 78/14/75
f 77/53/76 103/47/76 100/49/76 71/54/76
f 39/55/76 74/28/76 99/47/76 55/53/76
f 41/10/75 73/17/75 98/41/75 63/44/75
f 35/43/53 78/43/52 101/36/70 97/36/54
f 88/42/50 35/43/53 97/36/54 104/34/39
f 132/30/35 106/31/36 122/31/37 140/30/38
f 135/32/39 120/33/39 128/33/39 141/32/39
f 158/34/40 132/30/35 112/35/41 146/36/42
f 136/37/39 118/38/39 126/38/39 142/37/39
f 146/36/42 112/35/41 125/35/43 154/36/44
f 170/39/45 174/39/46 143/40/47 107/40/48
f 147/17/49 116/18/49 138/33/49 172/41/49
f 162/42/50 166/42/51 152/43/52 109/43/53
f 178/34/39 171/36/54 111/35/55 163/30/56
f 169/37/57 160/44/57 152/14/57 166/13/57
f 133/25/58 135/32/58 117/45/58 113/46/58
f 147/17/49 149/41/49 120/33/49 116/18/49
f 134/9/57 136/37/57 119/44/57 115/10/57
f 148/28/59 150/47/59 118/38/59 114/29/59
f 176/41/49 161/33/49 157/48/49 175/20/49
f 165/37/40 169/37/40 159/38/40 131/38/40
f 172/41/40 176/41/40 160/44/40 137/44/40
f 134/9/57 115/10/57 137/44/57 165/37/57
f 156/47/59 153/49/59 121/50/59 126/38/59
f 142/37/57 139/13/57 124/14/57 127/44/57
f 155/41/49 154/20/49 125/48/49 128/33/49
f 141/32/58 140/51/58 122/52/58 123/45/58
f 150/47/39 117/53/39 123/53/39 156/47/39
f 130/42/60 110/43/61 124/43/62 139/42/63
f 149/41/39 119/44/39 127/44/39 155/41/39
f 144/39/64 108/40/65 121/40/66 153/39/67
f 108/40/65 130/42/60 139/42/63 121/40/66
f 128/33/68 125/48/68 140/51/68 141/32/68
f 126/38/69 121/50/69 139/13/69 142/37/69
f 171/36/54 175/36/70 157/35/71 111/35/55
f 163/30/56 167/30/72 145/31/73 105/31/74
f 114/29/69 118/38/69 136/37/69 134/9/69
f 116/18/68 120/33/68 135/32/68 133/25/68
f 164/32/40 168/32/40 161/33/40 138/33/40
f 133/25/58 113/46/58 129/45/58 164/32/58
f 107/40/48 143/40/47 166/42/51 162/42/50
f 119/44/39 136/37/39 142/37/39 127/44/39
f 144/39/64 106/31/36 132/30/35 158/34/40
f 117/45/39 135/32/39 141/32/39 123/45/39
f 112/35/41 132/30/35 140/30/38 125/35/43
f 108/40/65 144/39/64 158/34/40 130/42/60
f 161/33/68 168/32/68 167/51/68 157/48/68
f 106/31/36 144/39/64 153/39/67 122/31/37
f 120/33/39 149/41/39 155/41/39 128/33/39
f 118/38/39 150/47/39 156/47/39 126/38/39
f 127/44/75 124/14/75 154/20/75 155/41/75
f 123/53/76 122/54/76 153/49/76 156/47/76
f 168/32/58 151/45/58 145/52/58 167/51/58
f 148/28/59 114/29/59 131/38/59 173/47/59
f 113/55/76 117/53/76 150/47/76 148/28/76
f 115/10/75 119/44/75 149/41/75 147/17/75
f 177/47/59 159/38/59 143/50/59 174/49/59
f 173/47/40 177/47/40 151/53/40 129/53/40
f 159/38/69 169/37/69 166/13/69 143/50/69
f 110/43/61 146/36/42 154/36/44 124/43/62
f 130/42/60 158/34/40 146/36/42 110/43/61
f 114/29/69 134/9/69 165/37/69 131/38/69
f 116/18/68 133/25/68 164/32/68 138/33/68
f 137/44/40 160/44/40 169/37/40 165/37/40
f 170/39/45 178/34/39 163/30/56 105/31/74
f 129/45/40 151/45/40 168/32/40 164/32/40
f 111/35/55 157/35/71 167/30/72 163/30/56
f 107/40/48 162/42/50 178/34/39 170/39/45
f 105/31/74 145/31/73 174/39/46 170/39/45
f 138/33/40 161/33/40 176/41/40 172/41/40
f 131/38/40 159/38/40 177/47/40 173/47/40
f 160/44/75 176/41/75 175/20/75 152/14/75
f 151/53/76 177/47/76 174/49/76 145/54/76
f 113/55/76 148/28/76 173/47/76 129/53/76
f 115/10/75 147/17/75 172/41/75 137/44/75
f 109/43/53 152/43/52 175/36/70 171/36/54
f 162/42/50 109/43/53 171/36/54 178/34/39
