# Blender 4.1.1
# www.blender.org
mtllib Wheat.mtl
o Cylinder
v -0.000991 0.093767 -0.003643
v 0.000000 0.238314 0.000000
v 0.001437 0.093767 -0.001879
v 0.000000 0.230293 -0.010000
v 0.000510 0.093767 0.000975
v 0.000000 0.252753 -0.008785
v -0.002491 0.093767 0.000975
v 0.000000 0.230293 0.010000
v -0.003418 0.093767 -0.001879
v 0.000000 0.252753 0.008785
v -0.000991 0.127681 -0.003643
v -0.003418 0.127874 -0.001879
v 0.001437 0.161207 -0.001879
v 0.000510 0.160898 0.000975
v 0.021925 0.216779 -0.004022
v 0.020465 0.216627 0.000472
v 0.041202 0.247439 -0.005336
v -0.011049 0.203307 -0.008647
v -0.012866 0.203412 -0.003787
v -0.028924 0.258643 -0.013994
v 0.000000 0.224069 0.000000
v 0.000000 0.252753 0.000000
v 0.000000 0.230293 0.000000
v -0.010000 0.230293 0.000000
v -0.008785 0.252753 0.000000
v 0.010000 0.230293 0.000000
v 0.008785 0.252753 0.000000
v 0.000000 0.224069 0.000000
v 0.000000 0.252753 0.000000
v 0.000000 0.230293 0.000000
v 0.000892 0.250683 -0.007566
v 0.000783 0.267794 -0.006647
v -0.000892 0.250683 0.007566
v -0.000783 0.267794 0.006647
v 0.000000 0.245940 0.000000
v 0.000000 0.267794 0.000000
v 0.000000 0.250683 0.000000
v -0.007566 0.250683 -0.000892
v -0.006647 0.267794 -0.000783
v 0.007566 0.250683 0.000892
v 0.006647 0.267794 0.000783
v 0.000000 0.245940 0.000000
v 0.000000 0.267794 0.000000
v 0.000000 0.250683 0.000000
v 0.001048 0.268119 -0.005532
v 0.000921 0.280763 -0.004859
v -0.001048 0.268119 0.005532
v -0.000921 0.280763 0.004859
v 0.000000 0.264614 0.000000
v 0.000000 0.280763 0.000000
v 0.000000 0.268119 0.000000
v -0.005532 0.268119 -0.001048
v -0.004859 0.280763 -0.000921
v 0.005532 0.268119 0.001048
v 0.004859 0.280763 0.000921
v 0.000000 0.264614 0.000000
v 0.000000 0.280763 0.000000
v 0.000000 0.268119 0.000000
v 0.001286 0.280640 -0.004213
v 0.001130 0.290533 -0.003701
v -0.001286 0.280640 0.004213
v -0.001130 0.290533 0.003701
v 0.000000 0.277898 0.000000
v 0.000000 0.290533 0.000000
v 0.000000 0.280640 0.000000
v -0.004213 0.280640 -0.001286
v -0.003701 0.290533 -0.001130
v 0.004213 0.280640 0.001286
v 0.003701 0.290533 0.001130
v 0.000000 0.277898 0.000000
v 0.000000 0.290533 0.000000
v 0.000000 0.280640 0.000000
v -0.001036 0.178214 0.000405
v -0.001867 0.177990 -0.001026
v 0.021925 0.216779 -0.004022
v 0.020465 0.216627 0.000472
v -0.001036 0.178214 0.000405
v -0.001867 0.177990 -0.001026
v -0.012778 0.217797 0.012440
v -0.013609 0.217573 0.011009
v -0.025287 0.234895 0.026361
vn 0.4634 0.0131 -0.8861
vn 0.9511 -0.0000 0.3090
vn -0.1385 0.0062 0.9903
vn -0.8891 0.0141 0.4574
vn -0.5878 -0.0000 -0.8090
vn -0.5858 0.0319 -0.8098
vn 0.9507 0.0102 0.3100
vn -0.9059 0.3227 -0.2741
vn -0.8244 0.5076 -0.2506
vn 0.8372 0.1323 0.5306
vn 0.8900 0.3190 0.3259
vn 1.0000 -0.0000 -0.0000
vn -0.0000 -0.0000 -1.0000
vn 0.9931 -0.0000 0.1170
vn 0.1170 -0.0000 -0.9931
vn 0.9825 -0.0000 0.1862
vn 0.1862 -0.0000 -0.9825
vn 0.9564 -0.0000 0.2919
vn 0.2919 -0.0000 -0.9564
vn -0.9564 -0.0000 -0.2919
vn -0.2919 -0.0000 0.9564
vn -0.0000 1.0000 -0.0000
vn -0.8659 0.0183 0.5000
vn 0.7714 0.3833 -0.5080
vn 0.5314 0.7336 -0.4236
vt 1.000000 0.500000
vt 1.000000 0.669569
vt 0.800000 1.000000
vt 0.800000 0.837196
vt 0.800000 0.500000
vt 0.600000 0.835654
vt 0.600000 0.500000
vt 0.400000 1.000000
vt 0.400000 0.792109
vt 0.400000 0.500000
vt 0.283157 0.792109
vt 0.200000 0.820039
vt 0.200000 0.670531
vt 0.200000 0.500000
vt 0.000000 0.669569
vt 0.000000 0.500000
vt 0.109243 0.820039
vt 0.000000 1.000000
vt 0.600000 1.000000
vt 0.500000 0.500000
vt 0.500000 1.000000
vt 0.000000 0.500000
vt 0.000000 1.000000
vt 0.000000 0.000000
vt 0.500000 0.000000
vt 1.000000 0.000000
vt 0.200000 1.000000
s 0
f 1/1/1 11/2/1 2/3/1 13/4/1 3/5/1
f 3/5/2 13/4/2 14/6/2 5/7/2
f 5/7/3 14/6/3 2/8/3 73/9/3 7/10/3
f 7/10/4 73/11/4 74/12/4 12/13/4 9/14/4
f 9/14/5 12/13/5 11/15/5 1/16/5
f 11/15/6 12/13/6 74/17/6 2/18/6
f 14/6/7 13/4/7 2/19/7
f 13/4/8 14/6/8 16/6/8 15/4/8
f 15/4/9 16/6/9 17/4/9
f 12/13/10 11/15/10 18/15/10 19/13/10
f 19/13/11 18/15/11 20/13/11
f 23/20/12 21/1/12 4/21/12
f 22/22/12 23/20/12 4/21/12 6/23/12
f 10/24/12 8/25/12 23/20/12 22/22/12
f 8/26/12 21/1/12 23/20/12
f 30/20/13 28/1/13 24/21/13
f 29/22/13 30/20/13 24/21/13 25/23/13
f 27/24/13 26/25/13 30/20/13 29/22/13
f 26/26/13 28/1/13 30/20/13
f 37/20/14 35/1/14 31/21/14
f 36/22/14 37/20/14 31/21/14 32/23/14
f 34/24/14 33/25/14 37/20/14 36/22/14
f 33/26/14 35/1/14 37/20/14
f 44/20/15 42/1/15 38/21/15
f 43/22/15 44/20/15 38/21/15 39/23/15
f 41/24/15 40/25/15 44/20/15 43/22/15
f 40/26/15 42/1/15 44/20/15
f 51/20/16 49/1/16 45/21/16
f 50/22/16 51/20/16 45/21/16 46/23/16
f 48/24/16 47/25/16 51/20/16 50/22/16
f 47/26/16 49/1/16 51/20/16
f 58/20/17 56/1/17 52/21/17
f 57/22/17 58/20/17 52/21/17 53/23/17
f 55/24/17 54/25/17 58/20/17 57/22/17
f 54/26/17 56/1/17 58/20/17
f 65/20/18 63/1/18 59/21/18
f 64/22/18 65/20/18 59/21/18 60/23/18
f 62/24/18 61/25/18 65/20/18 64/22/18
f 61/26/18 63/1/18 65/20/18
f 72/20/19 70/1/19 66/21/19
f 71/22/19 72/20/19 66/21/19 67/23/19
f 69/24/19 68/25/19 72/20/19 71/22/19
f 68/26/19 70/1/19 72/20/19
f 59/21/20 63/1/20 61/25/20 62/24/20 64/22/20 60/23/20
f 66/21/21 70/1/21 68/25/21 69/24/21 71/22/21 67/23/21
f 73/11/22 74/12/22 78/12/22 77/11/22
f 74/12/23 73/11/23 2/27/23
f 16/6/22 15/4/22 75/4/22 76/6/22
f 77/11/24 78/12/24 80/12/24 79/11/24
f 79/11/25 80/12/25 81/11/25
