# Blender 4.1.1
# www.blender.org
mtllib Base_Spawn.mtl
o Cube
v -0.377361 0.000000 0.943402
v -0.377361 0.056598 1.000000
v -0.400000 0.056598 0.943402
v -0.377361 1.943402 1.000000
v -0.377361 2.000000 1.056598
v -0.400000 2.056598 1.023444
v -0.400000 2.056598 0.863361
v -0.400000 1.943402 0.943402
v -0.377361 0.000000 -0.943402
v -0.400000 0.056598 -0.943402
v -0.377361 0.056598 -1.000000
v -0.400000 2.056598 -0.863361
v -0.400000 2.056598 -1.023444
v -0.377361 2.000000 -1.056598
v -0.377361 1.943402 -1.000000
v -0.400000 1.943402 -0.943402
v 0.377361 0.000000 0.943402
v 0.400000 0.056598 0.943402
v 0.377361 0.056598 1.000000
v 0.400000 2.056598 0.863361
v 0.400000 2.056598 1.023444
v 0.377361 2.000000 1.056598
v 0.377361 1.943402 1.000000
v 0.400000 1.943402 0.943402
v 0.377361 0.000000 -0.943402
v 0.377361 0.056598 -1.000000
v 0.400000 0.056598 -0.943402
v 0.377361 1.943402 -1.000000
v 0.377361 2.000000 -1.056598
v 0.400000 2.056598 -1.023444
v 0.400000 2.056598 -0.863361
v 0.400000 1.943402 -0.943402
v -0.377361 2.029997 1.552005
v -0.400000 2.056598 1.402655
v -0.377361 2.000000 1.543402
v -0.377361 2.029997 -1.552005
v -0.377361 2.000000 -1.543402
v -0.400000 2.056598 -1.402655
v 0.377361 2.029997 -1.552005
v 0.400000 2.056598 -1.402655
v 0.377361 2.000000 -1.543402
v 0.377361 2.029997 1.552005
v 0.377361 2.000000 1.543402
v 0.400000 2.056598 1.402655
v -0.400000 2.688617 -0.391425
v -0.400000 2.919959 0.000000
v -0.400000 2.688617 0.391425
v -0.377361 2.970003 0.047995
v -0.377361 2.970003 -0.047995
v 0.400000 2.688617 0.391425
v 0.400000 2.919959 0.000000
v 0.400000 2.688617 -0.391425
v 0.377361 2.970003 -0.047995
v 0.377361 2.970003 0.047995
vn -0.6725 -0.6895 0.2690
vn -0.6725 -0.2690 0.6895
vn -0.9765 -0.1524 0.1524
vn -0.8505 -0.1806 0.4940
vn -0.8444 -0.5034 0.1835
vn -0.9951 -0.0899 0.0405
vn -0.9997 -0.0148 0.0184
vn -0.9917 -0.0348 0.1237
vn -0.6725 -0.6895 -0.2690
vn -0.9765 -0.1524 -0.1524
vn -0.6725 -0.2690 -0.6895
vn -0.9997 -0.0148 -0.0184
vn -0.9951 -0.0899 -0.0405
vn -0.8444 -0.5034 -0.1835
vn -0.8505 -0.1806 -0.4940
vn -0.9917 -0.0348 -0.1237
vn 0.6725 -0.6895 0.2690
vn 0.9765 -0.1524 0.1524
vn 0.6725 -0.2690 0.6895
vn 0.9997 -0.0148 0.0184
vn 0.9951 -0.0899 0.0405
vn 0.8444 -0.5034 0.1835
vn 0.8505 -0.1806 0.4940
vn 0.9917 -0.0348 0.1237
vn 0.6725 -0.6895 -0.2690
vn 0.6725 -0.2690 -0.6895
vn 0.9765 -0.1524 -0.1524
vn 0.8505 -0.1806 -0.4940
vn 0.8444 -0.5034 -0.1835
vn 0.9951 -0.0899 -0.0405
vn 0.9997 -0.0148 -0.0184
vn 0.9917 -0.0348 -0.1237
vn -0.8051 0.1967 0.5596
vn -0.9952 -0.0269 0.0938
vn -0.8051 -0.4634 0.3703
vn -0.8051 0.1967 -0.5596
vn -0.8051 -0.4634 -0.3703
vn -0.9952 -0.0269 -0.0938
vn 0.8051 0.1967 -0.5596
vn 0.9952 -0.0269 -0.0938
vn 0.8051 -0.4634 -0.3703
vn 0.8051 0.1967 0.5596
vn 0.8051 -0.4634 0.3703
vn 0.9952 -0.0269 0.0938
vn -0.9869 0.1393 -0.0816
vn -0.9912 0.1324 -0.0000
vn -0.9869 0.1393 0.0816
vn -0.7515 0.6468 0.1299
vn -0.7515 0.6468 -0.1299
vn 0.9869 0.1393 0.0816
vn 0.9912 0.1324 -0.0000
vn 0.9869 0.1393 -0.0816
vn 0.7515 0.6468 -0.1299
vn 0.7515 0.6468 0.1299
vt 0.144939 0.732631
vt 0.376285 0.746145
vt 0.616640 0.732631
vt 0.612136 0.038593
vt 0.625000 0.739995
vt 0.625000 0.524155
vt 0.625000 0.739995
vt 0.382075 0.007075
vt 0.617925 0.007075
vt 0.617925 0.242925
vt 0.382075 0.242925
vt 0.625000 0.492925
vt 0.625000 0.257075
vt 0.625000 0.492925
vt 0.625000 0.250000
vt 0.625000 0.250000
vt 0.144939 0.494210
vt 0.612136 0.262864
vt 0.616640 0.494210
vt 0.376285 0.498715
vt 0.625000 0.239995
vt 0.625000 0.024155
vt 0.625000 0.239995
vt 0.625000 0.750000
vt 0.625000 0.750000
vt 0.382075 0.507075
vt 0.617925 0.507075
vt 0.617925 0.742925
vt 0.382075 0.742925
vt 0.625000 0.728776
vt 0.625000 0.021224
vt 0.625000 0.992925
vt 0.625000 0.757075
vt 0.625000 0.000000
vt 0.625000 0.000000
vt 0.625000 0.492925
vt 0.625000 0.257075
vt 0.625000 0.500000
vt 0.625000 0.500000
vt 0.132075 0.742925
vt 0.132075 0.750000
vt 0.125000 0.742925
vt 0.617925 0.000000
vt 0.625000 0.017080
vt 0.132075 0.507075
vt 0.125000 0.507075
vt 0.132075 0.500000
vt 0.625000 0.232920
vt 0.617925 0.250000
vt 0.367925 0.742925
vt 0.367925 0.507075
vt 0.617925 0.500000
vt 0.625000 0.021224
vt 0.625000 0.728776
vt 0.382075 0.000000
vt 0.382075 0.250000
vt 0.625000 0.504144
vt 0.625000 0.662149
s 1
f 2/1/2 19/2/19 23/3/23 4/4/4
f 20/5/20 31/6/31 51/7/51
f 3/8/3 8/9/8 16/10/16 10/11/10
f 39/12/39 36/13/36 49/13/49 53/14/53
f 38/15/38 13/15/13 45/16/45
f 11/17/11 15/18/15 28/19/28 26/20/26
f 12/21/12 7/22/7 46/23/46
f 44/24/44 21/24/21 50/25/50
f 27/26/27 32/27/32 24/28/24 18/29/18
f 43/30/43 35/31/35 5/31/5 22/30/22
f 33/32/33 42/33/42 54/33/54 48/32/48
f 6/34/6 34/34/34 47/35/47
f 41/36/41 29/36/29 14/37/14 37/37/37
f 30/38/30 40/38/40 52/39/52
f 1/40/1 2/41/2 3/42/3
f 4/43/4 5/34/5 6/34/6 7/44/7 8/9/8
f 9/45/9 10/46/10 11/47/11
f 12/48/12 13/15/13 14/15/14 15/49/15 16/10/16
f 17/50/17 18/29/18 19/2/19
f 20/5/20 21/24/21 22/30/22 23/3/23 24/28/24
f 25/51/25 26/20/26 27/26/27
f 28/19/28 29/14/29 30/38/30 31/38/31 32/52/32
f 33/53/33 34/34/34 35/31/35
f 36/13/36 37/37/37 38/15/38
f 39/12/39 40/38/40 41/36/41
f 42/54/42 43/30/43 44/24/44
f 45/34/45 46/34/46 47/35/47 48/34/48 49/34/49
f 50/24/50 51/24/51 52/24/52 53/33/53 54/33/54
f 9/45/9 1/40/1 3/42/3 10/46/10
f 2/55/2 4/43/4 8/9/8 3/8/3
f 7/22/7 12/21/12 16/10/16 8/9/8
f 15/49/15 11/56/11 10/11/10 16/10/16
f 25/51/25 9/45/9 11/17/11 26/20/26
f 32/27/32 27/26/27 26/20/26 28/19/28
f 17/50/17 25/51/25 27/26/27 18/29/18
f 31/6/31 20/5/20 24/28/24 32/27/32
f 23/3/23 19/2/19 18/29/18 24/28/24
f 1/40/1 17/50/17 19/2/19 2/1/2
f 36/13/36 39/12/39 41/36/41 37/37/37
f 42/54/42 33/31/33 35/31/35 43/30/43
f 13/15/13 38/15/38 37/37/37 14/37/14
f 34/34/34 6/34/6 5/31/5 35/31/35
f 14/37/14 29/36/29 28/19/28 15/18/15
f 4/4/4 23/3/23 22/30/22 5/31/5
f 40/38/40 30/38/30 29/36/29 41/36/41
f 43/30/43 22/30/22 21/24/21 44/24/44
f 44/24/44 50/25/50 54/33/54 42/33/42
f 45/16/45 13/15/13 12/21/12 46/23/46
f 46/34/46 7/34/7 6/34/6 47/35/47
f 33/34/33 48/34/48 47/35/47 34/34/34
f 48/32/48 54/33/54 53/33/53 49/32/49
f 30/57/30 52/58/52 51/7/51 31/6/31
f 50/25/50 21/24/21 20/5/20 51/7/51
f 39/12/39 53/14/53 52/39/52 40/38/40
f 38/15/38 45/16/45 49/13/49 36/13/36
f 9/45/9 25/51/25 17/50/17 1/40/1
