# Blender 3.6.1
# www.blender.org
mtllib Crystal_Periph.mtl
o Cylinder
v -0.000000 -1.000000 -0.600000
v -0.000000 3.067951 -0.600000
v 0.570634 -1.000000 -0.185410
v 0.570634 3.067951 -0.185410
v 0.352671 -1.000000 0.485410
v 0.352671 3.067951 0.485410
v -0.352671 -1.000000 0.485410
v -0.352671 3.067951 0.485410
v -0.570634 -1.000000 -0.185410
v -0.570634 3.067951 -0.185410
v -0.000000 3.660243 0.000000
vn 0.5878 -0.0000 -0.8090
vn 0.9511 -0.0000 0.3090
vn -0.0000 -0.0000 1.0000
vn -0.7356 0.6339 0.2390
vn -0.9511 -0.0000 0.3090
vn -0.5878 -0.0000 -0.8090
vn 0.7356 0.6339 0.2390
vn -0.4546 0.6339 -0.6257
vn 0.4546 0.6339 -0.6257
vn -0.0000 0.6339 0.7734
vt 1.000000 0.500000
vt 1.000000 1.000000
vt 0.800000 1.000000
vt 0.800000 0.500000
vt 0.600000 1.000000
vt 0.600000 0.500000
vt 0.400000 1.000000
vt 0.400000 0.500000
vt 0.200000 1.000000
vt 0.200000 0.500000
vt 0.000000 1.000000
vt 0.000000 0.500000
s 0
usemtl Crystals
f 1/1/1 2/2/1 4/3/1 3/4/1
f 3/4/2 4/3/2 6/5/2 5/6/2
f 5/6/3 6/5/3 8/7/3 7/8/3
f 10/9/4 8/7/4 11/9/4
f 7/8/5 8/7/5 10/9/5 9/10/5
f 9/10/6 10/9/6 2/11/6 1/12/6
f 6/5/7 4/3/7 11/5/7
f 2/11/8 10/9/8 11/11/8
f 4/3/9 2/2/9 11/3/9
f 8/7/10 6/5/10 11/7/10
